<svg xmlns="http://www.w3.org/2000/svg" viewBox="0 0 500 500"><g id="freepik--background-complete--inject-103"><path d="M159.23,326.51a37,37,0,1,1,37-37A37,37,0,0,1,159.23,326.51Zm0-72.28a35.32,35.32,0,1,0,35.32,35.31A35.36,35.36,0,0,0,159.23,254.23Z" style="fill:#ebebeb"></path><path d="M157.38,331.74c-.57,0-1.13-.06-1.68-.11l.13-1.64c.54.05,1.08.08,1.62.1Zm5.88-.15-.15-1.64c.54-.05,1.07-.11,1.6-.19l.22,1.63C164.38,331.47,163.82,331.53,163.26,331.59Zm-13.38-.85c-.55-.13-1.1-.26-1.64-.41l.43-1.59c.52.14,1,.27,1.57.39Zm20.82-.54-.45-1.58c.53-.15,1-.31,1.55-.47l.51,1.56C171.78,329.88,171.24,330.05,170.7,330.2Zm-28-1.79-1.54-.7.71-1.48c.49.23,1,.45,1.48.66Zm35.1-.91-.72-1.48c.48-.24,1-.48,1.43-.74l.79,1.45C178.77,327,178.28,327.25,177.77,327.5ZM136,324.82c-.47-.31-.93-.63-1.39-1l1-1.33,1.34.92Zm48.24-1.24-1-1.33c.44-.31.86-.64,1.29-1l1,1.29C185.13,322.91,184.69,323.25,184.24,323.58Zm-54.16-3.48c-.4-.38-.8-.78-1.19-1.18l1.18-1.15c.37.39.76.77,1.15,1.14Zm59.83-1.53-1.2-1.13c.37-.39.74-.79,1.09-1.2l1.24,1.09C190.67,317.75,190.29,318.16,189.91,318.57Zm-64.81-4.16c-.33-.45-.66-.91-1-1.38l1.37-.91c.3.45.61.89.92,1.32Zm69.5-1.78-1.38-.9c.3-.45.58-.91.86-1.37l1.41.84C195.2,311.69,194.91,312.16,194.6,312.63Zm-73.4-4.7c-.24-.5-.48-1-.7-1.53l1.51-.65c.21.49.44,1,.67,1.46Zm77-2-1.52-.64c.21-.5.41-1,.6-1.51l1.54.58C198.59,304.91,198.38,305.43,198.16,306Zm-79.63-5.1c-.15-.54-.29-1.08-.42-1.63l1.6-.38c.13.53.26,1.05.41,1.57Zm81.93-2.12-1.6-.36c.11-.52.22-1.05.31-1.58l1.62.29C200.69,297.63,200.58,298.19,200.46,298.73Zm-83.29-5.32c0-.56-.09-1.12-.11-1.68l1.64-.08c0,.54.06,1.07.11,1.61Zm84.26-2.18-1.64-.07q0-.8,0-1.62v-.16h1.64v.15C201.46,290.11,201.45,290.67,201.43,291.23ZM118.8,286l-1.64-.15c0-.56.11-1.12.18-1.67l1.63.21C118.9,284.91,118.85,285.45,118.8,286Zm80.61-2.26q-.12-.8-.27-1.59l1.62-.3c.1.55.19,1.1.27,1.66Zm-79.34-4.9-1.58-.44c.15-.54.31-1.08.47-1.61l1.57.49C120.37,277.79,120.22,278.3,120.07,278.83Zm77.66-2.17q-.25-.77-.54-1.53l1.53-.58q.3.78.57,1.59ZM122.62,272l-1.49-.71c.25-.51.5-1,.76-1.51l1.46.77C123.09,271,122.85,271.52,122.62,272Zm72.19-2c-.26-.47-.53-.94-.8-1.4l1.4-.85c.29.48.57,1,.84,1.46Zm-68.47-4.24-1.33-1c.33-.45.67-.9,1-1.34l1.3,1C127,264.89,126.66,265.32,126.34,265.76ZM190.75,264c-.34-.42-.69-.84-1-1.24l1.23-1.09c.37.42.74.85,1.09,1.29Zm-59.63-3.71L130,259.08c.4-.38.82-.77,1.24-1.14l1.09,1.23C131.9,259.53,131.51,259.9,131.12,260.27Zm54.56-1.51c-.41-.35-.82-.7-1.25-1l1-1.29c.44.35.87.71,1.3,1.07Zm-48.89-3-.91-1.37c.47-.31.94-.61,1.42-.9l.85,1.4C137.69,255.13,137.24,255.42,136.79,255.72Zm43-1.19c-.47-.28-.94-.54-1.42-.8l.78-1.45c.49.27,1,.54,1.47.83Zm-36.59-2.27-.65-1.51c.51-.23,1-.44,1.55-.64l.59,1.54C144.17,251.84,143.67,252,143.18,252.26Zm30-.84c-.51-.19-1-.36-1.54-.53l.5-1.56c.54.17,1.07.35,1.6.54ZM150.08,250l-.37-1.6c.55-.13,1.1-.24,1.65-.35l.31,1.62C151.13,249.76,150.61,249.87,150.08,250Zm16.07-.45c-.52-.09-1.06-.17-1.59-.24l.21-1.63,1.66.25Zm-8.86-.54-.08-1.64c.56,0,1.12,0,1.68-.05l0,1.65C158.36,249,157.82,249,157.29,249Z" style="fill:#ebebeb"></path><polygon points="153.56 312.4 164.96 312.4 164.96 295.22 182.14 295.22 182.14 283.83 164.96 283.83 164.96 266.65 153.56 266.65 153.56 283.83 136.38 283.83 136.38 295.22 153.56 295.22 153.56 312.4" style="fill:#ebebeb"></polygon><path d="M66.67,98.49A24.07,24.07,0,1,1,90.73,74.42,24.09,24.09,0,0,1,66.67,98.49Zm0-47.06a23,23,0,1,0,23,23A23,23,0,0,0,66.67,51.43Z" style="fill:#ebebeb"></path><path d="M65.46,101.89l-1.09-.07.09-1.07c.34,0,.69.06,1.05.07Zm3.83-.1-.1-1.06,1-.12.14,1.06C70,101.72,69.66,101.76,69.29,101.79Zm-8.71-.55L59.51,101l.28-1c.34.09.68.18,1,.25Zm13.56-.35-.3-1,1-.31.33,1ZM55.89,99.72c-.34-.14-.67-.29-1-.45l.46-1c.31.15.63.3,1,.44Zm22.85-.59-.47-1q.47-.23.93-.48l.51.94C79.39,98.8,79.07,99,78.74,99.13ZM51.55,97.39c-.31-.2-.61-.41-.91-.63l.63-.87q.42.31.87.6ZM83,96.58l-.64-.86c.29-.21.56-.42.84-.64l.67.83ZM47.69,94.32l-.78-.78.77-.74.75.74Zm39-1-.78-.74c.24-.25.48-.51.71-.78l.81.71ZM44.45,90.61c-.22-.29-.43-.59-.63-.89l.89-.6c.19.29.39.58.6.86Zm45.24-1.16-.89-.58c.19-.3.38-.59.56-.9l.91.55C90.09,88.84,89.89,89.15,89.69,89.45ZM41.91,86.39c-.16-.33-.31-.66-.46-1l1-.43c.13.32.28.64.43,1ZM92,85.1l-1-.41c.14-.33.27-.65.39-1l1,.37C92.29,84.43,92.15,84.77,92,85.1ZM40.17,81.78c-.1-.35-.19-.7-.27-1.06l1-.24c.08.34.17.68.26,1ZM93.51,80.4l-1.05-.23c.08-.34.15-.68.21-1l1.06.19C93.66,79.69,93.59,80.05,93.51,80.4ZM39.29,76.94c0-.36-.06-.73-.08-1.09l1.07-.06c0,.35,0,.7.08,1Zm54.85-1.42-1.07,0c0-.35,0-.7,0-1.06v-.11h1.07v.11C94.16,74.79,94.15,75.16,94.14,75.52ZM40.35,72.11,39.28,72c0-.36.07-.73.12-1.09l1.06.14C40.41,71.41,40.38,71.75,40.35,72.11Zm52.47-1.47c0-.35-.1-.69-.17-1l1-.19q.1.54.18,1.08ZM41.18,67.45l-1-.29c.1-.35.2-.7.31-1l1,.33C41.37,66.77,41.27,67.11,41.18,67.45ZM91.73,66c-.11-.33-.23-.66-.35-1l1-.38c.13.34.25.69.37,1Zm-48.9-3-1-.46c.16-.34.32-.66.49-1l1,.51C43.14,62.38,43,62.69,42.83,63Zm47-1.31c-.17-.31-.34-.61-.52-.91l.91-.55c.19.31.37.63.55.95ZM45.26,58.94l-.87-.63c.21-.3.43-.59.66-.88l.84.67Q45.56,58.51,45.26,58.94Zm41.93-1.16c-.22-.28-.45-.54-.68-.81l.8-.7c.24.27.48.55.71.83ZM48.37,55.37l-.75-.78.81-.74.71.8C48.88,54.88,48.62,55.12,48.37,55.37Zm35.52-1-.81-.67.66-.84.85.7Zm-31.83-2-.59-.89.92-.59.56.92Zm28-.77-.92-.52.5-.94,1,.53ZM56.22,50.15l-.43-1c.34-.14.67-.28,1-.41l.38,1Zm19.53-.55-1-.34.33-1c.35.11.7.23,1,.36Zm-15-.93-.24-1c.36-.08.72-.16,1.08-.22l.19,1.05Zm10.47-.29-1.05-.15.14-1.07,1.09.17ZM65.4,48,65.35,47c.37,0,.73,0,1.1,0V48C66.1,48,65.75,48,65.4,48Z" style="fill:#ebebeb"></path><polygon points="62.98 89.3 70.39 89.3 70.39 78.12 81.58 78.12 81.58 70.7 70.39 70.7 70.39 59.52 62.98 59.52 62.98 70.7 51.79 70.7 51.79 78.12 62.98 78.12 62.98 89.3" style="fill:#ebebeb"></polygon><path d="M413.4,119.74a37,37,0,1,1,37-37A37,37,0,0,1,413.4,119.74Zm0-72.28a35.32,35.32,0,1,0,35.31,35.32A35.35,35.35,0,0,0,413.4,47.46Z" style="fill:#ebebeb"></path><path d="M411.54,125c-.56,0-1.12-.06-1.68-.11l.14-1.64c.53,0,1.07.08,1.61.1Zm5.89-.15-.16-1.64c.54-.05,1.08-.11,1.61-.18l.22,1.63ZM404,124c-.55-.13-1.09-.26-1.63-.41l.42-1.58,1.57.38Zm20.83-.54-.45-1.58c.52-.15,1-.3,1.55-.47l.51,1.56C425.94,123.12,425.41,123.28,424.87,123.43Zm-28-1.79c-.52-.22-1-.46-1.54-.7l.7-1.48c.49.23,1,.45,1.48.66Zm35.09-.91-.72-1.48c.49-.23,1-.48,1.44-.73l.78,1.44C432.94,120.23,432.44,120.48,431.93,120.73Zm-41.76-2.68c-.47-.31-.94-.63-1.39-1l1-1.33c.44.31.88.62,1.33.92Zm48.23-1.24-1-1.32c.43-.32.86-.65,1.28-1l1,1.29C439.3,116.14,438.85,116.48,438.4,116.81Zm-54.15-3.48c-.41-.38-.81-.78-1.2-1.18l1.18-1.15c.38.39.76.77,1.15,1.14Zm59.82-1.53-1.19-1.13c.37-.39.73-.79,1.09-1.2l1.23,1.09C444.83,111,444.46,111.4,444.07,111.8Zm-64.81-4.16c-.33-.45-.65-.91-1-1.37l1.37-.92q.45.68.93,1.32Zm69.5-1.78-1.37-.9c.29-.45.58-.91.86-1.37l1.41.85C449.37,104.92,449.07,105.39,448.76,105.86Zm-73.39-4.7c-.25-.5-.48-1-.71-1.53l1.51-.65c.22.49.44,1,.68,1.46Zm76.95-2-1.51-.64c.21-.5.41-1,.6-1.51l1.54.58C452.75,98.14,452.54,98.66,452.32,99.18Zm-79.63-5.1c-.14-.54-.28-1.08-.41-1.63l1.6-.37c.12.52.26,1,.4,1.56ZM454.62,92,453,91.6c.12-.52.22-1,.32-1.58l1.62.29C454.86,90.87,454.75,91.42,454.62,92Zm-83.28-5.32q-.07-.84-.12-1.68l1.64-.08c0,.54.07,1.08.12,1.61Zm84.25-2.18L454,84.39c0-.53,0-1.07,0-1.61v-.17h1.65v.15C455.63,83.34,455.62,83.9,455.59,84.46ZM373,79.22l-1.64-.15c.05-.56.11-1.12.18-1.67l1.63.21C373.07,78.14,373,78.68,373,79.22ZM453.57,77c-.08-.54-.16-1.07-.26-1.6l1.62-.3c.1.55.19,1.1.27,1.66Zm-79.33-4.91-1.59-.44c.15-.54.31-1.08.48-1.61l1.57.5C374.53,71,374.38,71.54,374.24,72.06Zm77.66-2.17c-.18-.51-.36-1-.55-1.52l1.54-.59q.3.8.57,1.59Zm-75.12-4.65-1.48-.71c.24-.51.49-1,.76-1.51l1.45.78C377.26,64.27,377,64.75,376.78,65.24Zm72.2-2c-.26-.47-.53-.93-.81-1.4l1.41-.84c.29.47.57,1,.84,1.45ZM380.51,59l-1.34-1c.33-.45.67-.9,1-1.34l1.29,1C381.15,58.12,380.82,58.55,380.51,59Zm64.41-1.78c-.34-.42-.69-.83-1.05-1.24l1.24-1.09q.56.63,1.08,1.29ZM385.28,53.5l-1.14-1.18,1.24-1.15,1.09,1.24C386.07,52.76,385.67,53.13,385.28,53.5ZM439.85,52c-.41-.35-.83-.69-1.25-1l1-1.29c.44.35.87.71,1.3,1.07ZM391,49,390,47.58c.47-.31.94-.61,1.42-.9l.86,1.4C391.86,48.36,391.4,48.65,391,49Zm43-1.19c-.46-.28-.94-.54-1.41-.79l.77-1.45c.5.26,1,.54,1.47.82Zm-36.59-2.27L396.69,44c.51-.22,1-.44,1.56-.64l.59,1.54C398.33,45.07,397.83,45.27,397.34,45.49Zm30-.84-1.53-.53.5-1.56c.54.17,1.07.35,1.6.55Zm-23.1-1.43-.37-1.6c.54-.12,1.09-.24,1.65-.34l.3,1.61C405.3,43,404.77,43.1,404.25,43.22Zm16.07-.44-1.6-.25.21-1.63c.56.08,1.12.16,1.67.26Zm-8.87-.55-.08-1.64c.56,0,1.12,0,1.69,0v1.64C412.53,42.19,412,42.21,411.45,42.23Z" style="fill:#ebebeb"></path><polygon points="407.73 105.63 419.12 105.63 419.12 88.45 436.3 88.45 436.3 77.06 419.12 77.06 419.12 59.88 407.73 59.88 407.73 77.06 390.55 77.06 390.55 88.45 407.73 88.45 407.73 105.63" style="fill:#ebebeb"></polygon><path d="M199.78,341h50.93a8.48,8.48,0,0,1,8.48,8.48v104a3.17,3.17,0,0,1-3.17,3.17H194.48a3.17,3.17,0,0,1-3.17-3.17v-104A8.48,8.48,0,0,1,199.78,341Z" style="fill:#ebebeb"></path><rect x="205.6" y="326.3" width="39.3" height="18.01" style="fill:#ebebeb"></rect><rect x="191.31" y="378.65" width="67.88" height="45.77" style="fill:#a6a6a6"></rect><rect x="191.31" y="415.06" width="67.88" height="4.14" style="fill:#c7c7c7"></rect><rect x="191.31" y="383.87" width="67.88" height="4.14" style="fill:#c7c7c7"></rect><rect x="202.86" y="313.69" width="44.78" height="16.68" style="fill:#c7c7c7"></rect><rect x="200.51" y="330.37" width="49.48" height="4.94" style="fill:#a6a6a6"></rect><rect x="205.12" y="316.02" width="2.06" height="12.02" rx="0.56" style="fill:#a6a6a6"></rect><rect x="208.94" y="316.02" width="2.06" height="12.02" rx="0.56" style="fill:#a6a6a6"></rect><path d="M213.32,316h.95a.55.55,0,0,1,.55.55v10.91a.56.56,0,0,1-.56.56h-.95a.56.56,0,0,1-.56-.56V316.58A.56.56,0,0,1,213.32,316Z" style="fill:#a6a6a6"></path><rect x="216.58" y="316.02" width="2.06" height="12.02" rx="0.56" style="fill:#a6a6a6"></rect><rect x="220.4" y="316.02" width="2.06" height="12.02" rx="0.56" style="fill:#a6a6a6"></rect><path d="M224.78,316h.95a.56.56,0,0,1,.56.56v10.91a.56.56,0,0,1-.56.56h-.95a.55.55,0,0,1-.55-.55V316.58A.56.56,0,0,1,224.78,316Z" style="fill:#a6a6a6"></path><path d="M228.6,316h.95a.55.55,0,0,1,.55.55v10.91a.56.56,0,0,1-.56.56h-.95a.56.56,0,0,1-.56-.56V316.58A.56.56,0,0,1,228.6,316Z" style="fill:#a6a6a6"></path><rect x="231.86" y="316.02" width="2.06" height="12.02" rx="0.56" style="fill:#a6a6a6"></rect><path d="M236.24,316h.95a.56.56,0,0,1,.56.56v10.91a.56.56,0,0,1-.56.56h-.95a.55.55,0,0,1-.55-.55V316.58A.56.56,0,0,1,236.24,316Z" style="fill:#a6a6a6"></path><rect x="239.5" y="316.02" width="2.06" height="12.02" rx="0.56" style="fill:#a6a6a6"></rect><rect x="243.32" y="316.02" width="2.06" height="12.02" rx="0.56" style="fill:#a6a6a6"></rect><g style="opacity:0.6000000000000001"><path d="M202.86,344.73c-2,1.41-4.5,3-4.81,5.48.25,3.9.48,7.84.63,11.75.68,20.05.6,40.13-1.62,60.1-2.22-20-2.3-40.06-1.62-60.1.15-3.75.35-7.52.6-11.27.25-3.43,4-5.13,6.82-6Z" style="fill:#fff"></path></g><path d="M293.7,373.53l-7-7.41c-1.13-1.41-1.76-5.44-1.76-5.44H255.37s-.61,4-1.75,5.44l-7,7.41a5.65,5.65,0,0,0-1.23,3.52v74a5.6,5.6,0,0,0,5.6,5.6h38.31a5.59,5.59,0,0,0,5.6-5.6v-74A5.71,5.71,0,0,0,293.7,373.53Z" style="fill:#dbdbdb;opacity:0.5"></path><path d="M292.18,382.34V448.8a5,5,0,0,1-5,5H253.14a5,5,0,0,1-5-5V382.34Z" style="fill:#a6a6a6"></path><rect x="251.06" y="346.42" width="38.22" height="14.27" style="fill:#a6a6a6"></rect><rect x="259.21" y="389.34" width="31.49" height="52.21" style="fill:#fff"></rect><g style="opacity:0.6000000000000001"><path d="M257.74,366.6c-1.43,3.67-4,7.08-4.62,11,0,.24,0,.81,0,1.06a432.93,432.93,0,0,1,.34,45.57c-.29,6.57-.73,13.14-1.56,19.71-2.42-21.27-2.39-42.7-1.3-64.05,0-.38.09-1.47.12-1.85.7-4.6,4.44-7.92,7-11.43Z" style="fill:#fff"></path></g><g style="isolation:isolate"><path d="M234.76,474.93a16.85,16.85,0,0,1-7.62,2.16,15.59,15.59,0,0,1-6.73-1c-.24-.1-.48-.23-.71-.34s-.45-.25-.65-.39a4.42,4.42,0,0,1-2.24-3.19l-.35-3.49a4.46,4.46,0,0,0,2.25,3.21c.2.12.41.25.65.38a7.5,7.5,0,0,0,.7.33,15.42,15.42,0,0,0,6.73,1,16.84,16.84,0,0,0,7.62-2.15c2.37-1.42,3.48-3.23,3.32-4.92l.35,3.48C238.25,471.71,237.14,473.51,234.76,474.93Z" style="fill:#dbdbdb"></path><path d="M220.07,472.58l.2,2,14.2-8.5-.35-3.48-15.41,9.23a6.36,6.36,0,0,0,.64.38A6.74,6.74,0,0,0,220.07,472.58Z" style="fill:#22A195"></path><path d="M234.12,462.63c.24.1.49.22.72.34s.44.24.65.37l-15.42,9.24a6.74,6.74,0,0,1-.72-.34,6.36,6.36,0,0,1-.64-.38Z" style="fill:#dbdbdb"></path><polygon points="235.49 463.35 235.84 466.83 220.41 476.06 220.07 472.58 235.49 463.35" style="fill:#dbdbdb"></polygon><path d="M227.4,461.61a15.37,15.37,0,0,1,6.72,1l-15.41,9.23a6.36,6.36,0,0,0,.64.38,6.74,6.74,0,0,0,.72.34l15.42-9.24c3.36,2.18,2.95,5.7-1.08,8.11a17,17,0,0,1-7.62,2.16,15.5,15.5,0,0,1-6.72-1,6.74,6.74,0,0,1-.72-.34,6.36,6.36,0,0,1-.64-.38c-3.36-2.18-3-5.69,1.08-8.1A16.77,16.77,0,0,1,227.4,461.61Z" style="fill:#ebebeb"></path></g><path d="M219.35,462.91l-.06,4a1,1,0,0,1-.3.7c-.71.81-2.51,1.44-4.84,1.8a35.84,35.84,0,0,1-7.11.33l-1-.07-1-.1c-4.36-.48-7.2-1.67-7.18-2.94l.05-4c0,1.25,2.84,2.44,7.19,2.92l1,.1,1,.07a34.46,34.46,0,0,0,7.11-.32c2.33-.37,4.13-1,4.83-1.8A1.05,1.05,0,0,0,219.35,462.91Z" style="fill:#dbdbdb"></path><path d="M206.11,465.67l-.05,4.05-1-.1.06-4Z" style="fill:#dbdbdb"></path><path d="M210.24,459.81l1,.07,1,.09-5.08,5.77-1-.07-1-.09Z" style="fill:#dbdbdb"></path><polygon points="212.18 459.97 212.13 464.01 207.05 469.78 207.1 465.74 212.18 459.97" style="fill:#dbdbdb"></polygon><path d="M203.14,460.13a34.33,34.33,0,0,1,7.1-.32l-5.08,5.77,1,.09,1,.07,5.08-5.77c5.15.57,8.19,2.15,6.86,3.65-.7.8-2.5,1.43-4.83,1.8a35.18,35.18,0,0,1-7.11.32l-1-.07-1-.09c-5.17-.57-8.2-2.14-6.87-3.65C199,461.13,200.8,460.5,203.14,460.13Z" style="fill:#ebebeb"></path><path d="M254.21,461.46l0,4.05a1,1,0,0,0,.31.7c.71.8,2.51,1.44,4.84,1.8a35.8,35.8,0,0,0,7.11.33l1-.07,1-.1c4.36-.48,7.19-1.68,7.18-2.94l-.06-4c0,1.25-2.83,2.44-7.18,2.92l-.95.1-1,.07a34.46,34.46,0,0,1-7.11-.32c-2.33-.37-4.13-1-4.83-1.8A1.05,1.05,0,0,1,254.21,461.46Z" style="fill:#dbdbdb"></path><path d="M267.44,464.22l.06,4,1-.1-.06-4Z" style="fill:#dbdbdb"></path><path d="M263.32,458.36l-1,.07-1,.09,5.08,5.77,1-.07,1-.09Z" style="fill:#dbdbdb"></path><polygon points="261.38 458.52 261.43 462.56 266.51 468.33 266.46 464.29 261.38 458.52" style="fill:#dbdbdb"></polygon><path d="M270.42,458.68a34.33,34.33,0,0,0-7.1-.32l5.08,5.77-1,.09-1,.07-5.08-5.77c-5.15.57-8.19,2.15-6.86,3.65.7.8,2.5,1.43,4.83,1.8a35.18,35.18,0,0,0,7.11.32l1-.07,1-.09c5.16-.57,8.2-2.15,6.87-3.65C274.56,459.68,272.76,459.05,270.42,458.68Z" style="fill:#ebebeb"></path><path d="M263.57,469.11l-.28,3.83c0,.05,0,.12,0,.19-.21,1.21-1.59,2.22-3.64,2.84a20.19,20.19,0,0,1-6.75.7c-.34,0-.67,0-1-.07s-.67-.05-1-.09c-5.22-.68-9.07-2.83-8.91-5.06l.26-3.83c-.15,2.24,3.7,4.39,8.91,5.06l1,.1c.34,0,.67.06,1,.07a20.1,20.1,0,0,0,6.74-.7c2.07-.62,3.43-1.62,3.64-2.84A1.38,1.38,0,0,0,263.57,469.11Z" style="fill:#dbdbdb"></path><path d="M245.93,464.59a20.31,20.31,0,0,1,6.73-.71l-1.49,8.8c.32,0,.66.08,1,.1s.67.06,1,.08l1.5-8.8c5.37.68,9.28,2.94,8.88,5.24-.2,1.23-1.58,2.23-3.64,2.85a20.34,20.34,0,0,1-6.74.71c-.33,0-.67,0-1-.08s-.67-.06-1-.1c-5.37-.68-9.29-2.94-8.89-5.24C242.49,466.22,243.87,465.22,245.93,464.59Z" style="fill:#ebebeb"></path><path d="M252.66,463.88c.33,0,.67,0,1,.08s.67.06,1,.1l-1.5,8.8c-.33,0-.67,0-1-.08s-.67-.06-1-.1Z" style="fill:#dbdbdb"></path><path d="M268.43,474l0,3.83c0,.06,0,.13,0,.2.12,1.22,1.41,2.34,3.41,3.12a20.06,20.06,0,0,0,6.66,1.24h1c.34,0,.68,0,1,0,5.25-.26,9.26-2.09,9.28-4.33l0-3.83c0,2.24-4,4.07-9.28,4.33l-1,0c-.34,0-.67,0-1,0a20.43,20.43,0,0,1-6.67-1.24c-2-.78-3.28-1.89-3.4-3.12C268.43,474.17,268.44,474.11,268.43,474Z" style="fill:#dbdbdb"></path><path d="M286.38,470.93a20.33,20.33,0,0,0-6.66-1.23l.79,8.89-1,0c-.33,0-.67,0-1,0l-.79-8.89c-5.4.26-9.49,2.19-9.28,4.52.11,1.24,1.4,2.34,3.41,3.13a20.06,20.06,0,0,0,6.66,1.24c.33,0,.67,0,1,0l1,0c5.41-.26,9.49-2.2,9.28-4.52C289.68,472.83,288.38,471.73,286.38,470.93Z" style="fill:#ebebeb"></path><path d="M279.72,469.7c-.33,0-.67,0-1,0l-1,0,.79,8.89c.33,0,.67,0,1,0l1,0Z" style="fill:#dbdbdb"></path></g><g id="freepik--Floor--inject-103"><path d="M43,457.2c132.6-.62,281.36-.62,414,0-132.6.61-281.36.61-414,0Z" style="fill:#263238"></path></g><g id="freepik--Gut--inject-103"><path d="M209.87,223.79s-14.42-.78-18-10.24c0,0-15.66-11.94-9.14-30.85,0,0-8.53-54.89,14.26-65,21.4-9.46,47.14,2.48,47.14,2.48s30.7-7.29,42.48,2.33S293.75,166,293.75,166s12.87,48.07-5.89,56.13-33.33,9.61-33.33,9.61-43.75,9.21-49.62,1.24C200.57,227,209.87,223.79,209.87,223.79Z" style="fill:#22A195"></path><path d="M209.87,223.79s-14.42-.78-18-10.24c0,0-15.66-11.94-9.14-30.85,0,0-8.53-54.89,14.26-65,21.4-9.46,47.14,2.48,47.14,2.48s30.7-7.29,42.48,2.33S293.75,166,293.75,166s12.87,48.07-5.89,56.13-33.33,9.61-33.33,9.61-43.75,9.21-49.62,1.24C200.57,227,209.87,223.79,209.87,223.79Z" style="fill:#fff;opacity:0.4"></path><g style="opacity:0.9"><path d="M209.87,223.79c11.61-2.57,23.66-2.26,35.48-2.68,10.22-.22,20.74-.8,30.32-4.63a13.5,13.5,0,0,0,3.74-2.31,11.85,11.85,0,0,1-3.5,2.78c-9.28,5-20.19,5.9-30.52,6.15-11.84.36-23.71-.32-35.52.69Z" style="fill:#22A195"></path><path d="M207.62,203.74a51.16,51.16,0,0,1,19.08-3.68c6.61,0,13,1.57,19.3,2.69,9.43,2,19.09,2.57,28.39-.08a22.5,22.5,0,0,0,8.59-4.12,14.76,14.76,0,0,1-3.84,3c-7.19,4-15.72,5.12-23.83,4.55-5.67-.41-13.54-2.16-19.17-3.24a61,61,0,0,0-28.52.89Z" style="fill:#22A195"></path><path d="M215.22,151.69c-3.24,3.94-5,10.15-1.25,14.3a9.24,9.24,0,0,0,3.31,2.54c3,1.25,6.45,1.18,9.8.85,18.13-2.09,34.3-10.7,49.31,5.29-16.31-14.13-30.89-5.11-49.14-3.41-3.56.23-7.3.29-10.63-1.32-7.62-4.19-7.13-12.6-1.4-18.25Z" style="fill:#22A195"></path><path d="M248.71,149.83c4.31,4.85,4.74,14.84-2.48,17.12,5-4.54,3.81-11.23,2.48-17.12Z" style="fill:#22A195"></path><path d="M229.17,201c-6.87.67-14.68-5.27-13.1-12.64a19.83,19.83,0,0,0,1.83,4.48c2.5,4.21,6.73,6.22,11.27,8.16Z" style="fill:#22A195"></path><path d="M243.86,222.13c3.86-1.84,6.93-4.77,7.83-9,.29-1,.4-2,.66-3,2.45,5.78-2.11,12.6-8.49,12Z" style="fill:#22A195"></path><path d="M267.23,168.42c4.65-2.67,6.62-7.08,7.44-12,.36-2.61.42-2.59,1,0,1,5.33-2.54,11.91-8.42,12Z" style="fill:#22A195"></path><path d="M227.55,139.44c5.8,2.67,9,10.3,6,16.13a14,14,0,0,1-1.44,2.24c.12-.89.39-1.7.5-2.54,1.2-5.84-1.35-11.38-5.07-15.83Z" style="fill:#22A195"></path><path d="M182.74,182.7A31.8,31.8,0,0,0,205.31,185c10.1-2.64,20.21-6.94,30.9-6.25a21.19,21.19,0,0,1,7.65,2.09,24.94,24.94,0,0,0-7.69-1.11c-10.53.3-20.26,4.72-30.42,7.11a28.48,28.48,0,0,1-23-4.1Z" style="fill:#22A195"></path><path d="M255,186.26c1.58,8.92,5.21,15.58,14.37,18.18a13.45,13.45,0,0,1-6.45-1.19c-6.27-2.77-9.14-10.53-7.92-17Z" style="fill:#22A195"></path></g><g style="opacity:0.6000000000000001"><path d="M206.77,208.28c11.91-4.91,25.58-5,37.87-1.47-6.24-.29-12.77-.51-19-.45a155.87,155.87,0,0,0-18.87,1.92Z" style="fill:#fff"></path><path d="M208.32,227.82c-1.76,6.26,14.51,4.53,18.19,4.74,2.41,0,4.83-.11,7.29.06-1.69.51-3.62.91-5.36,1.25-5.71.78-15.36,1.91-19.87-2.39a2.88,2.88,0,0,1-.25-3.66Z" style="fill:#fff"></path><path d="M214.52,159.75c1.68,7.19,10.85,6.39,16.62,6.56,2.26,0,4.51-.12,6.8-.05-1.09.39-2.2.68-3.3,1-6.43,1.62-20.67,2.18-20.12-7.49Z" style="fill:#fff"></path><path d="M248.56,170c8.47-3.25,19-1,24.88,6.05a44.84,44.84,0,0,0-11.94-5A55.34,55.34,0,0,0,248.56,170Z" style="fill:#fff"></path><path d="M222,138.51c5.48,1.72,9.75,8.1,7.91,13.8-1.13-5.46-4.22-9.74-7.91-13.8Z" style="fill:#fff"></path></g><path d="M193.75,202.7s5.15,8.37,0,11.9-19.72,5.5-27.91-1.07-10.7-18.35-.78-22.3c0,0-12.71-7.06-7.44-17,0,0-7.29-17.83,5.58-23.18,0,0-6.9-7.37-5.19-14.42s6.28-9.38,6.28-9.38-5.08-8.33,3.56-14.87a12.93,12.93,0,0,1,5-11.09,11.24,11.24,0,0,1,11.71-1.24A26.08,26.08,0,0,1,200,94.25c9.38-.38,17.83,5.35,17.83,5.35s9.77-7.36,22.71-.93c0,0,13-7.9,23.73.93,0,0,9.07-5.66,20.08-3.95s14.8,8.45,14.8,8.45,20.31-.94,15.59,19.29c0,0,17.67,13.26,2.79,30.62,0,0,12.09,15.2-.7,28.15,0,0,12.87,17.36-7.52,33.33,0,0,5.66,12.48-5.2,19.54a17.29,17.29,0,0,1-19.84,0s-5.74,7.28-16.44,3.13c0,0-6.12,8.26-15,4.78,0,0,5.43,8.21-3.41,10.15,0,0,1.71,7.83-2.56,7.6s-14.42-9.46-8.91-15.58c0,0-5.2-17.52,6.82-18.92,0,0,1.32-13.8,17.6-9.3,0,0,5.89-8,15.66-6.59,0,0-6.2-12.87,2.56-18.45,0,0-7.29-11.94,1.93-16.28,0,0-1.16-11.4,5-15.43,0,0-11-10.31-7.52-23.34,0,0-14.58,10.24-30.32-.07,0,0-16.35,14-34.42,3.79,0,0-8,5-16.2,1a27,27,0,0,1-6,25.82s6.43,11.7-3.41,21C189.56,188.36,197.62,194.17,193.75,202.7Z" style="fill:#22A195"></path><path d="M193.75,202.7s5.15,8.37,0,11.9-19.72,5.5-27.91-1.07-10.7-18.35-.78-22.3c0,0-12.71-7.06-7.44-17,0,0-7.29-17.83,5.58-23.18,0,0-6.9-7.37-5.19-14.42s6.28-9.38,6.28-9.38-5.08-8.33,3.56-14.87a12.93,12.93,0,0,1,5-11.09,11.24,11.24,0,0,1,11.71-1.24A26.08,26.08,0,0,1,200,94.25c9.38-.38,17.83,5.35,17.83,5.35s9.77-7.36,22.71-.93c0,0,13-7.9,23.73.93,0,0,9.07-5.66,20.08-3.95s14.8,8.45,14.8,8.45,20.31-.94,15.59,19.29c0,0,17.67,13.26,2.79,30.62,0,0,12.09,15.2-.7,28.15,0,0,12.87,17.36-7.52,33.33,0,0,5.66,12.48-5.2,19.54a17.29,17.29,0,0,1-19.84,0s-5.74,7.28-16.44,3.13c0,0-6.12,8.26-15,4.78,0,0,5.43,8.21-3.41,10.15,0,0,1.71,7.83-2.56,7.6s-14.42-9.46-8.91-15.58c0,0-5.2-17.52,6.82-18.92,0,0,1.32-13.8,17.6-9.3,0,0,5.89-8,15.66-6.59,0,0-6.2-12.87,2.56-18.45,0,0-7.29-11.94,1.93-16.28,0,0-1.16-11.4,5-15.43,0,0-11-10.31-7.52-23.34,0,0-14.58,10.24-30.32-.07,0,0-16.35,14-34.42,3.79,0,0-8,5-16.2,1a27,27,0,0,1-6,25.82s6.43,11.7-3.41,21C189.56,188.36,197.62,194.17,193.75,202.7Z" style="fill:#fff;opacity:0.1"></path><g style="opacity:0.1"><path d="M279.86,136.81c-.59.41-14.89,10-30.3-.09,0,0-16.35,14-34.42,3.8,0,0-8,5-16.19,1h0s11.05.5,15.61-7.35c0,0,5.54,7.86,17.46,7.35s17.55-12.46,17.55-12.46,5.79,8.51,13.89,9.92C271.31,140.36,279.39,137,279.86,136.81Z"></path><path d="M316.78,182.16s12.87,17.36-7.52,33.33c0,0,5.66,12.48-5.2,19.54a17.29,17.29,0,0,1-19.84,0s-5.74,7.27-16.44,3.13c0,0-6.12,8.26-15,4.78.17.27,5.26,8.25-3.42,10.15,0,0,1.7,7.83-2.56,7.6-3.82-.21-12.38-7.65-10.14-13.6-1.44,4.27,6.31,10.31,9.18,9.7s2.26-5.28,2.26-5.28,3.71-.23,4.87-2.86-1.3-7.05-1.43-7.28a12.92,12.92,0,0,0,8.87,0,11.74,11.74,0,0,0,7.05-5.82s5.43,2.56,9.77,1.4,6.59-8.06,6.59-8.06,8.58,9,18.6,4.74,3.39-22.18,3.39-22.18,7.43-1.94,12.44-10.49-3.8-20.27-3.8-20.27a17.48,17.48,0,0,0,8.19-13.25C322.9,172,321.62,177.25,316.78,182.16Z"></path><path d="M193.75,202.7s5.15,8.38,0,11.9-19.71,5.5-27.92-1.07a19.23,19.23,0,0,1-7-11.06c2.51,6.38,11.21,11.65,20.57,11.28,9.61-.38,13.8-5.05,11.4-10.66,0,0,4.57-8.7-3.3-14.64,0,0,6.63-6.42,6.4-12.42s-4.81-10.18-4.81-10.18,8.63-2.68,10.79-13.4v0A26.21,26.21,0,0,1,193,167.35s6.43,11.71-3.41,21C189.56,188.36,197.62,194.17,193.75,202.7Z"></path></g><g style="opacity:0.2"><path d="M163.2,151.07c7.43,3.47,15.53,3.52,23.57,3.1-7.48,3.27-17.56,2.9-23.57-3.1Z"></path><path d="M175.8,167.77c5.6,1.41,11.5.25,17.17-.42-4.15,3.33-13.18,4.47-17.17.42Z"></path><path d="M277.94,210.3c4.6,3.82,9.88,6,15.19,8.68-6,.15-12.73-3-15.19-8.68Z"></path><path d="M267.78,238.16c-4.94-2.57-7-9.17-5.57-14.37,1.36,5,2.83,10,5.57,14.37Z"></path><path d="M244.68,226.19c1.15,4.63,3,8.94,6.82,12-5.36-.39-8.71-7.21-6.82-12Z"></path><path d="M316.78,182.16c-10.4,3.88-21.13,2.67-29.93-4.27,4.85,1.69,9.55,3.68,14.64,4.27s10.15.17,15.29,0Z"></path><path d="M198.94,141.53a18.78,18.78,0,0,1-17.05-11.29l1.35.38c-4,1.94-8.76,1.1-12.6-.79.77.13,2.3.33,3.07.41,3.19.25,6.73.15,9.39-1.77a23.91,23.91,0,0,0,15.84,13.06Z"></path><path d="M279.88,136.8a24.1,24.1,0,0,0,5.21-8.06,30.47,30.47,0,0,0,6,1.75,29.35,29.35,0,0,0,16-1.32,18.33,18.33,0,0,1-7.8,3.42,23.73,23.73,0,0,1-14.12-2l1.13-.39c-1.58,2.64-3.58,5.28-6.42,6.6Z"></path><path d="M317.48,154c-5.71,2.32-13.31,2.09-18-2.32,5.9,1.83,11.84,1.83,18,2.32Z"></path><path d="M165.06,191.23c3.61-.19,7.43-.19,11-.48,1.22-.09,2.46-.19,3.78-.18a13.74,13.74,0,0,1-7.31,2.39,13.33,13.33,0,0,1-7.5-1.73Z"></path><path d="M217.78,99.6a24.09,24.09,0,0,1-6.45,6.67,7.55,7.55,0,0,1,6.45-6.67Z"></path><path d="M249.56,136.73c-3.92-.19-7.88-3.52-8.06-7.56l2.06,1.94c1.87,1.83,4.21,3.68,6,5.62Z"></path><path d="M264.22,99.6a25.79,25.79,0,0,1-7.21,6c.45-3.38,3.92-5.84,7.21-6Z"></path><path d="M299.1,104.1a6.76,6.76,0,0,1,4.19,7,12.55,12.55,0,0,1-4.19-7Z"></path></g></g><g id="freepik--Probiotics--inject-103"><path d="M179.09,141.56c-1.07,4.55-5.58,6-9,5.23a7.73,7.73,0,0,1-3.71-2,7,7,0,0,1-2-6.62c.94-4,4.11-6.8,8.83-5.7a8.26,8.26,0,0,1,3.61,1.81A7.4,7.4,0,0,1,179.09,141.56Z" style="fill:#22A195"></path><path d="M174.76,138.42a4.09,4.09,0,0,1-5,2.94,4.32,4.32,0,0,1-2.09-1.14,4.14,4.14,0,0,1,3.86-6.94,4.66,4.66,0,0,1,2,1A4.16,4.16,0,0,1,174.76,138.42Z" style="fill:#fff;opacity:0.1"></path><path d="M179.09,141.56c-1.07,4.55-5.58,6-9,5.23a7.73,7.73,0,0,1-3.71-2,8,8,0,0,0,7,.3c4.81-2.29,5.1-7.39,3.48-10.81A7.4,7.4,0,0,1,179.09,141.56Z" style="opacity:0.05"></path><path d="M170.61,131.87c0,.29.55.51,1,.54s1-.11,1.07-.44-.4-.54-.51-.68a.51.51,0,0,0-.53-.25,1,1,0,0,0-.59.34C171,131.5,170.62,131.65,170.61,131.87Z" style="fill:#22A195"></path><path d="M170.61,131.87c0,.29.55.51,1,.54s1-.11,1.07-.44-.4-.54-.51-.68a.51.51,0,0,0-.53-.25,1,1,0,0,0-.59.34C171,131.5,170.62,131.65,170.61,131.87Z" style="opacity:0.1"></path><path d="M166.91,133.49c.13.26.73.17,1.18-.06s.84-.61.7-.91-.61-.27-.77-.33a.52.52,0,0,0-.59,0,.92.92,0,0,0-.34.59C167,133,166.81,133.3,166.91,133.49Z" style="fill:#22A195"></path><path d="M166.91,133.49c.13.26.73.17,1.18-.06s.84-.61.7-.91-.61-.27-.77-.33a.52.52,0,0,0-.59,0,.92.92,0,0,0-.34.59C167,133,166.81,133.3,166.91,133.49Z" style="opacity:0.1"></path><path d="M164.51,136.75c.25.16.72-.22,1-.64s.43-1,.16-1.14-.67.06-.84.09a.53.53,0,0,0-.49.34.92.92,0,0,0,0,.68C164.37,136.26,164.33,136.63,164.51,136.75Z" style="fill:#22A195"></path><path d="M164.51,136.75c.25.16.72-.22,1-.64s.43-1,.16-1.14-.67.06-.84.09a.53.53,0,0,0-.49.34.92.92,0,0,0,0,.68C164.37,136.26,164.33,136.63,164.51,136.75Z" style="opacity:0.1"></path><path d="M164.07,140.77c.29,0,.5-.55.53-1.06s-.1-1-.44-1.06-.54.39-.67.5a.53.53,0,0,0-.26.54.92.92,0,0,0,.35.58C163.69,140.41,163.85,140.75,164.07,140.77Z" style="fill:#22A195"></path><path d="M164.07,140.77c.29,0,.5-.55.53-1.06s-.1-1-.44-1.06-.54.39-.67.5a.53.53,0,0,0-.26.54.92.92,0,0,0,.35.58C163.69,140.41,163.85,140.75,164.07,140.77Z" style="opacity:0.1"></path><path d="M165.69,144.47c.26-.13.16-.73-.07-1.18s-.6-.84-.9-.7-.28.61-.34.77a.52.52,0,0,0,.05.59.88.88,0,0,0,.59.33C165.19,144.35,165.49,144.57,165.69,144.47Z" style="fill:#22A195"></path><path d="M165.69,144.47c.26-.13.16-.73-.07-1.18s-.6-.84-.9-.7-.28.61-.34.77a.52.52,0,0,0,.05.59.88.88,0,0,0,.59.33C165.19,144.35,165.49,144.57,165.69,144.47Z" style="opacity:0.1"></path><path d="M168.94,146.86c.16-.24-.22-.71-.64-1s-1-.42-1.14-.15.07.67.1.84a.5.5,0,0,0,.33.48.92.92,0,0,0,.68,0C168.45,147,168.82,147.05,168.94,146.86Z" style="fill:#22A195"></path><path d="M168.94,146.86c.16-.24-.22-.71-.64-1s-1-.42-1.14-.15.07.67.1.84a.5.5,0,0,0,.33.48.92.92,0,0,0,.68,0C168.45,147,168.82,147.05,168.94,146.86Z" style="opacity:0.1"></path><path d="M173,147.31c0-.29-.55-.51-1.05-.54s-1,.11-1.07.44.4.54.5.68a.54.54,0,0,0,.54.25.94.94,0,0,0,.59-.34C172.61,147.68,173,147.53,173,147.31Z" style="fill:#22A195"></path><path d="M173,147.31c0-.29-.55-.51-1.05-.54s-1,.11-1.07.44.4.54.5.68a.54.54,0,0,0,.54.25.94.94,0,0,0,.59-.34C172.61,147.68,173,147.53,173,147.31Z" style="opacity:0.1"></path><path d="M176.66,145.69c-.13-.26-.73-.17-1.18.06s-.84.61-.7.91.61.27.77.34a.54.54,0,0,0,.59-.05.92.92,0,0,0,.34-.59C176.54,146.19,176.76,145.88,176.66,145.69Z" style="fill:#22A195"></path><path d="M176.66,145.69c-.13-.26-.73-.17-1.18.06s-.84.61-.7.91.61.27.77.34a.54.54,0,0,0,.59-.05.92.92,0,0,0,.34-.59C176.54,146.19,176.76,145.88,176.66,145.69Z" style="opacity:0.1"></path><path d="M179.06,142.43c-.25-.16-.72.22-1,.65s-.43.94-.16,1.14.67-.07.84-.1a.53.53,0,0,0,.49-.34.92.92,0,0,0,0-.68C179.2,142.92,179.24,142.55,179.06,142.43Z" style="fill:#22A195"></path><path d="M179.06,142.43c-.25-.16-.72.22-1,.65s-.43.94-.16,1.14.67-.07.84-.1a.53.53,0,0,0,.49-.34.92.92,0,0,0,0-.68C179.2,142.92,179.24,142.55,179.06,142.43Z" style="opacity:0.1"></path><path d="M179.5,138.42c-.29,0-.5.54-.53,1.05s.1,1,.44,1.06.54-.39.67-.5a.53.53,0,0,0,.26-.53.92.92,0,0,0-.35-.59C179.87,138.77,179.72,138.43,179.5,138.42Z" style="fill:#22A195"></path><path d="M179.5,138.42c-.29,0-.5.54-.53,1.05s.1,1,.44,1.06.54-.39.67-.5a.53.53,0,0,0,.26-.53.92.92,0,0,0-.35-.59C179.87,138.77,179.72,138.43,179.5,138.42Z" style="opacity:0.1"></path><path d="M177.88,134.71c-.26.13-.16.73.06,1.18s.61.85.91.7.28-.61.34-.77a.52.52,0,0,0-.05-.59.92.92,0,0,0-.59-.33C178.38,134.83,178.08,134.62,177.88,134.71Z" style="fill:#22A195"></path><path d="M177.88,134.71c-.26.13-.16.73.06,1.18s.61.85.91.7.28-.61.34-.77a.52.52,0,0,0-.05-.59.92.92,0,0,0-.59-.33C178.38,134.83,178.08,134.62,177.88,134.71Z" style="opacity:0.1"></path><path d="M174.63,132.32c-.16.24.22.71.64,1s.95.42,1.14.15-.07-.66-.1-.83a.51.51,0,0,0-.33-.49.92.92,0,0,0-.68,0C175.12,132.17,174.75,132.14,174.63,132.32Z" style="fill:#22A195"></path><path d="M174.63,132.32c-.16.24.22.71.64,1s.95.42,1.14.15-.07-.66-.1-.83a.51.51,0,0,0-.33-.49.92.92,0,0,0-.68,0C175.12,132.17,174.75,132.14,174.63,132.32Z" style="opacity:0.1"></path><path d="M169.22,132.18c0,.19.38.27.7.24s.63-.16.62-.37-.29-.3-.37-.37a.32.32,0,0,0-.36-.11.52.52,0,0,0-.33.27C169.4,131.92,169.2,132.05,169.22,132.18Z" style="fill:#22A195"></path><path d="M169.22,132.18c0,.19.38.27.7.24s.63-.16.62-.37-.29-.3-.37-.37a.32.32,0,0,0-.36-.11.52.52,0,0,0-.33.27C169.4,131.92,169.2,132.05,169.22,132.18Z" style="opacity:0.1"></path><path d="M164,138.18c.17.07.43-.21.56-.49s.18-.63,0-.73-.41.11-.51.14a.33.33,0,0,0-.27.25.63.63,0,0,0,.06.43C163.87,137.88,163.88,138.12,164,138.18Z" style="fill:#22A195"></path><path d="M164,138.18c.17.07.43-.21.56-.49s.18-.63,0-.73-.41.11-.51.14a.33.33,0,0,0-.27.25.63.63,0,0,0,.06.43C163.87,137.88,163.88,138.12,164,138.18Z" style="opacity:0.1"></path><path d="M166.59,145.69c.15-.11,0-.47-.15-.73s-.45-.47-.63-.35-.11.4-.14.51a.34.34,0,0,0,.09.36.55.55,0,0,0,.4.15C166.27,145.66,166.48,145.77,166.59,145.69Z" style="fill:#22A195"></path><path d="M166.59,145.69c.15-.11,0-.47-.15-.73s-.45-.47-.63-.35-.11.4-.14.51a.34.34,0,0,0,.09.36.55.55,0,0,0,.4.15C166.27,145.66,166.48,145.77,166.59,145.69Z" style="opacity:0.1"></path><path d="M174.38,147.2c0-.18-.38-.26-.7-.23s-.63.16-.62.37.29.3.37.37a.34.34,0,0,0,.36.11.55.55,0,0,0,.33-.27C174.2,147.47,174.4,147.34,174.38,147.2Z" style="fill:#22A195"></path><path d="M174.38,147.2c0-.18-.38-.26-.7-.23s-.63.16-.62.37.29.3.37.37a.34.34,0,0,0,.36.11.55.55,0,0,0,.33-.27C174.2,147.47,174.4,147.34,174.38,147.2Z" style="opacity:0.1"></path><path d="M179.59,141.21c-.16-.08-.42.2-.55.49s-.18.63,0,.72.41-.1.51-.13a.33.33,0,0,0,.27-.25.63.63,0,0,0-.06-.43C179.73,141.5,179.72,141.27,179.59,141.21Z" style="fill:#22A195"></path><path d="M179.59,141.21c-.16-.08-.42.2-.55.49s-.18.63,0,.72.41-.1.51-.13a.33.33,0,0,0,.27-.25.63.63,0,0,0-.06-.43C179.73,141.5,179.72,141.27,179.59,141.21Z" style="opacity:0.1"></path><path d="M177,133.7c-.15.11,0,.47.15.73s.45.47.63.35.11-.4.14-.51a.34.34,0,0,0-.09-.36.61.61,0,0,0-.4-.16C177.33,133.73,177.12,133.62,177,133.7Z" style="fill:#22A195"></path><path d="M177,133.7c-.15.11,0,.47.15.73s.45.47.63.35.11-.4.14-.51a.34.34,0,0,0-.09-.36.61.61,0,0,0-.4-.16C177.33,133.73,177.12,133.62,177,133.7Z" style="opacity:0.1"></path><path d="M199.19,71.13c-2.45.8-11.07,7.54-11.69,8.55a2.26,2.26,0,0,0,.35,3,2.09,2.09,0,0,0,3,0c1-.78,3.61-3.18,5.7-4.71s3.8-2.34,5-3.26C203.43,73.38,202.2,70.16,199.19,71.13Z" style="fill:#455a64"></path><path d="M200.22,72.54c-1.41.39-6.43,3.95-6.81,4.5a1.26,1.26,0,0,0,.12,1.7,1.18,1.18,0,0,0,1.7.09c.56-.42,2.12-1.69,3.33-2.5s2.2-1.21,2.92-1.7C202.54,73.92,201.93,72.08,200.22,72.54Z" style="fill:#fff;opacity:0.1"></path><path d="M201.82,74.55c1.19-1.29.08-3.71-2.39-2.91-2.16.7-9.72,6.62-10.27,7.5a2,2,0,0,0,.31,2.65,1.69,1.69,0,0,0,2,.4l-.61.51a2.09,2.09,0,0,1-3,0,2.25,2.25,0,0,1-.35-3c.62-1,9.23-7.75,11.7-8.55C202.08,70.2,203.33,73.12,201.82,74.55Z" style="fill:#37474f"></path><path d="M174.52,120.5c.64,2.5-.46,13.38-1,14.45a2.25,2.25,0,0,1-2.74,1.31,2.09,2.09,0,0,1-1.62-2.56c.15-1.23.76-4.75.94-7.34s-.05-4.46.07-6C170.36,118.11,173.74,117.43,174.52,120.5Z" style="fill:#455a64"></path><path d="M172.78,120.39c.43,1.39.1,7.54-.16,8.15a1.27,1.27,0,0,1-1.51.81,1.18,1.18,0,0,1-1-1.4c.06-.69.3-2.69.34-4.15s-.15-2.5-.13-3.37C170.38,119.16,172.26,118.68,172.78,120.39Z" style="fill:#fff;opacity:0.1"></path><path d="M170.23,120.1c.46-1.69,3.1-2,3.74.47.56,2.2-.41,11.75-.86,12.68a2,2,0,0,1-2.41,1.16,1.71,1.71,0,0,1-1.41-1.5c0,.32-.08.59-.11.79a2.09,2.09,0,0,0,1.63,2.56,2.24,2.24,0,0,0,2.73-1.32c.52-1.06,1.63-11.94,1-14.45C173.77,117.55,170.64,118.06,170.23,120.1Z" style="fill:#37474f"></path><path d="M254.34,87.79c-2,1.6-12.41,5-13.6,5a2.27,2.27,0,0,1-2.31-2,2.1,2.1,0,0,1,1.68-2.53c1.18-.35,4.64-1.23,7.08-2.12s4.05-1.87,5.5-2.38C254.82,83,256.82,85.82,254.34,87.79Z" style="fill:#455a64"></path><path d="M253.73,86.16c-1.09,1-6.84,3.16-7.51,3.16a1.26,1.26,0,0,1-1.35-1,1.17,1.17,0,0,1,.87-1.46c.66-.24,2.58-.83,3.93-1.39s2.23-1.16,3-1.48C253.88,83.46,255.08,85,253.73,86.16Z" style="fill:#fff;opacity:0.1"></path><path d="M253,83.71c1.73-.27,3.13,2,1.09,3.6-1.78,1.41-10.9,4.42-11.94,4.38a2,2,0,0,1-2-1.73,1.7,1.7,0,0,1,.79-1.9l-.76.22a2.1,2.1,0,0,0-1.68,2.53,2.25,2.25,0,0,0,2.31,2c1.19,0,11.57-3.37,13.6-5C256.72,85.9,255,83.25,253,83.71Z" style="fill:#37474f"></path><path d="M234,129.79c-2,1.6-12.42,5-13.61,5a2.26,2.26,0,0,1-2.31-2,2.08,2.08,0,0,1,1.68-2.52c1.18-.36,4.65-1.24,7.09-2.13s4-1.86,5.49-2.38C234.47,125,236.47,127.83,234,129.79Z" style="fill:#455a64"></path><path d="M233.38,128.16c-1.1,1-6.85,3.16-7.52,3.17a1.27,1.27,0,0,1-1.35-1.05,1.17,1.17,0,0,1,.88-1.46c.65-.23,2.58-.82,3.93-1.39s2.22-1.15,3-1.48C233.52,125.46,234.72,127,233.38,128.16Z" style="fill:#fff;opacity:0.1"></path><path d="M232.6,125.71c1.73-.27,3.14,2,1.09,3.6-1.78,1.41-10.9,4.42-11.93,4.38a2,2,0,0,1-2-1.73,1.67,1.67,0,0,1,.78-1.89l-.76.22a2.08,2.08,0,0,0-1.67,2.52,2.26,2.26,0,0,0,2.31,2c1.19,0,11.57-3.38,13.6-5C236.37,127.9,234.63,125.25,232.6,125.71Z" style="fill:#37474f"></path><path d="M159.6,131.55c1.1,2.34,8.88,10,10,10.51a2.26,2.26,0,0,0,2.94-.74,2.09,2.09,0,0,0-.38-3c-.9-.84-3.61-3.17-5.4-5.05s-2.81-3.46-3.87-4.57C161.28,127.06,158.25,128.69,159.6,131.55Z" style="fill:#455a64"></path><path d="M160.86,130.36c.56,1.34,4.73,5.87,5.33,6.17a1.27,1.27,0,0,0,1.68-.33,1.19,1.19,0,0,0-.14-1.71c-.48-.49-1.95-1.88-2.9-3s-1.49-2-2.06-2.67C161.93,127.88,160.18,128.71,160.86,130.36Z" style="fill:#fff;opacity:0.1"></path><path d="M162.65,128.51c-1.43-1-3.7.39-2.58,2.74,1,2.05,7.8,8.8,8.75,9.22a2,2,0,0,0,2.59-.64,1.68,1.68,0,0,0,.13-2.05l.59.54a2.08,2.08,0,0,1,.38,3,2.23,2.23,0,0,1-2.94.73c-1.09-.49-8.87-8.16-10-10.5C158.3,128.8,161,127.2,162.65,128.51Z" style="fill:#37474f"></path><path d="M252.19,90.89c-.41,2.56-5.75,12.1-6.65,12.88a2.26,2.26,0,0,1-3,.11,2.09,2.09,0,0,1-.47-3c.63-1.06,2.58-4,3.78-6.35s1.72-4.11,2.44-5.47C249.32,87.05,252.69,87.77,252.19,90.89Z" style="fill:#455a64"></path><path d="M250.64,90.1c-.16,1.45-2.91,7-3.4,7.42a1.27,1.27,0,0,1-1.7.14A1.17,1.17,0,0,1,245.2,96c.32-.61,1.34-2.35,2-3.68s.86-2.35,1.22-3.14C248.92,88,250.84,88.33,250.64,90.1Z" style="fill:#fff;opacity:0.1"></path><path d="M248.42,88.82c1.08-1.37,3.65-.65,3.23,1.92-.36,2.24-5,10.62-5.83,11.29a2,2,0,0,1-2.67.11,1.7,1.7,0,0,1-.7-1.93l-.41.67a2.1,2.1,0,0,0,.47,3,2.25,2.25,0,0,0,3-.12c.91-.77,6.24-10.31,6.65-12.87C252.67,87.9,249.6,87.12,248.42,88.82Z" style="fill:#37474f"></path><path d="M214.9,152.21c-.41,2.55-5.74,12.1-6.65,12.87a2.25,2.25,0,0,1-3,.12,2.1,2.1,0,0,1-.47-3c.63-1.06,2.59-4,3.78-6.35s1.73-4.12,2.45-5.47C212,148.37,215.4,149.09,214.9,152.21Z" style="fill:#455a64"></path><path d="M213.35,151.42c-.16,1.45-2.9,7-3.39,7.42a1.28,1.28,0,0,1-1.71.14,1.18,1.18,0,0,1-.34-1.67c.33-.62,1.35-2.35,2-3.68s.86-2.35,1.23-3.14C211.64,149.34,213.55,149.65,213.35,151.42Z" style="fill:#fff;opacity:0.1"></path><path d="M211.13,150.14c1.09-1.37,3.65-.65,3.24,1.92-.36,2.24-5.05,10.62-5.84,11.29a2,2,0,0,1-2.66.11,1.69,1.69,0,0,1-.71-1.93l-.41.67a2.1,2.1,0,0,0,.47,3,2.26,2.26,0,0,0,3-.12c.9-.77,6.24-10.31,6.65-12.87C215.38,149.21,212.31,148.44,211.13,150.14Z" style="fill:#37474f"></path><path d="M217.4,103.41c-1.26,5.37-6.59,7.11-10.58,6.17a9.19,9.19,0,0,1-4.38-2.4,8.22,8.22,0,0,1-2.32-7.82c1.11-4.72,4.85-8,10.42-6.72a9.73,9.73,0,0,1,4.26,2.13A8.74,8.74,0,0,1,217.4,103.41Z" style="fill:#22A195"></path><path d="M212.29,99.7a4.84,4.84,0,0,1-6,3.48,5.25,5.25,0,0,1-2.46-1.35,4.64,4.64,0,0,1-1.31-4.41c.63-2.66,2.73-4.52,5.87-3.78a5.33,5.33,0,0,1,2.4,1.2A4.89,4.89,0,0,1,212.29,99.7Z" style="fill:#fff;opacity:0.1"></path><path d="M217.4,103.41c-1.26,5.37-6.59,7.11-10.58,6.17a9.19,9.19,0,0,1-4.38-2.4,9.45,9.45,0,0,0,8.26.35c5.67-2.7,6-8.72,4.1-12.76A8.74,8.74,0,0,1,217.4,103.41Z" style="opacity:0.05"></path><path d="M207.39,92c0,.34.65.6,1.24.63s1.22-.12,1.26-.52-.47-.64-.59-.8a.65.65,0,0,0-.64-.3,1.13,1.13,0,0,0-.69.41C207.81,91.54,207.4,91.72,207.39,92Z" style="fill:#22A195"></path><path d="M207.39,92c0,.34.65.6,1.24.63s1.22-.12,1.26-.52-.47-.64-.59-.8a.65.65,0,0,0-.64-.3,1.13,1.13,0,0,0-.69.41C207.81,91.54,207.4,91.72,207.39,92Z" style="opacity:0.1"></path><path d="M203,93.89c.15.31.86.2,1.39-.07s1-.72.83-1.08-.72-.32-.91-.39a.61.61,0,0,0-.7.05,1.09,1.09,0,0,0-.39.7C203.16,93.3,202.9,93.66,203,93.89Z" style="fill:#22A195"></path><path d="M203,93.89c.15.31.86.2,1.39-.07s1-.72.83-1.08-.72-.32-.91-.39a.61.61,0,0,0-.7.05,1.09,1.09,0,0,0-.39.7C203.16,93.3,202.9,93.66,203,93.89Z" style="opacity:0.1"></path><path d="M200.19,97.73c.29.19.84-.26,1.17-.76s.5-1.11.18-1.34-.78.08-1,.11a.61.61,0,0,0-.57.4,1.09,1.09,0,0,0,0,.8C200,97.15,200,97.59,200.19,97.73Z" style="fill:#22A195"></path><path d="M200.19,97.73c.29.19.84-.26,1.17-.76s.5-1.11.18-1.34-.78.08-1,.11a.61.61,0,0,0-.57.4,1.09,1.09,0,0,0,0,.8C200,97.15,200,97.59,200.19,97.73Z" style="opacity:0.1"></path><path d="M199.67,102.47c.34,0,.59-.64.63-1.24s-.13-1.22-.52-1.25-.64.46-.8.59a.62.62,0,0,0-.3.63,1.06,1.06,0,0,0,.41.69C199.23,102.06,199.41,102.46,199.67,102.47Z" style="fill:#22A195"></path><path d="M199.67,102.47c.34,0,.59-.64.63-1.24s-.13-1.22-.52-1.25-.64.46-.8.59a.62.62,0,0,0-.3.63,1.06,1.06,0,0,0,.41.69C199.23,102.06,199.41,102.46,199.67,102.47Z" style="opacity:0.1"></path><path d="M201.58,106.84c.31-.15.2-.86-.08-1.39s-.71-1-1.07-.83-.32.72-.4.91a.63.63,0,0,0,.06.7c.22.32.5.32.7.4S201.35,107,201.58,106.84Z" style="fill:#22A195"></path><path d="M201.58,106.84c.31-.15.2-.86-.08-1.39s-.71-1-1.07-.83-.32.72-.4.91a.63.63,0,0,0,.06.7c.22.32.5.32.7.4S201.35,107,201.58,106.84Z" style="opacity:0.1"></path><path d="M205.42,109.67c.19-.29-.26-.84-.76-1.16s-1.12-.51-1.34-.19.08.79.11,1a.63.63,0,0,0,.4.58,1.08,1.08,0,0,0,.8,0C204.84,109.84,205.28,109.89,205.42,109.67Z" style="fill:#22A195"></path><path d="M205.42,109.67c.19-.29-.26-.84-.76-1.16s-1.12-.51-1.34-.19.08.79.11,1a.63.63,0,0,0,.4.58,1.08,1.08,0,0,0,.8,0C204.84,109.84,205.28,109.89,205.42,109.67Z" style="opacity:0.1"></path><path d="M210.16,110.2c0-.35-.64-.6-1.24-.63s-1.22.12-1.25.51.46.64.59.8a.61.61,0,0,0,.63.3,1.06,1.06,0,0,0,.69-.41C209.75,110.64,210.15,110.46,210.16,110.2Z" style="fill:#22A195"></path><path d="M210.16,110.2c0-.35-.64-.6-1.24-.63s-1.22.12-1.25.51.46.64.59.8a.61.61,0,0,0,.63.3,1.06,1.06,0,0,0,.69-.41C209.75,110.64,210.15,110.46,210.16,110.2Z" style="opacity:0.1"></path><path d="M214.53,108.28c-.15-.3-.86-.19-1.39.08s-1,.71-.83,1.07.72.33.91.4a.63.63,0,0,0,.7-.06c.32-.21.32-.49.4-.7S214.65,108.52,214.53,108.28Z" style="fill:#22A195"></path><path d="M214.53,108.28c-.15-.3-.86-.19-1.39.08s-1,.71-.83,1.07.72.33.91.4a.63.63,0,0,0,.7-.06c.32-.21.32-.49.4-.7S214.65,108.52,214.53,108.28Z" style="opacity:0.1"></path><path d="M217.36,104.44c-.29-.19-.84.26-1.17.76s-.5,1.12-.18,1.35.79-.08,1-.12a.6.6,0,0,0,.57-.39,1.12,1.12,0,0,0,0-.81C217.53,105,217.58,104.58,217.36,104.44Z" style="fill:#22A195"></path><path d="M217.36,104.44c-.29-.19-.84.26-1.17.76s-.5,1.12-.18,1.35.79-.08,1-.12a.6.6,0,0,0,.57-.39,1.12,1.12,0,0,0,0-.81C217.53,105,217.58,104.58,217.36,104.44Z" style="opacity:0.1"></path><path d="M217.89,99.7c-.35,0-.6.65-.63,1.24s.12,1.22.51,1.26.64-.46.8-.59a.62.62,0,0,0,.3-.63,1.09,1.09,0,0,0-.41-.7C218.33,100.12,218.15,99.72,217.89,99.7Z" style="fill:#22A195"></path><path d="M217.89,99.7c-.35,0-.6.65-.63,1.24s.12,1.22.51,1.26.64-.46.8-.59a.62.62,0,0,0,.3-.63,1.09,1.09,0,0,0-.41-.7C218.33,100.12,218.15,99.72,217.89,99.7Z" style="opacity:0.1"></path><path d="M216,95.33c-.3.16-.19.86.08,1.39s.71,1,1.07.83.33-.72.4-.91a.63.63,0,0,0-.06-.7,1.09,1.09,0,0,0-.7-.39C216.56,95.47,216.2,95.22,216,95.33Z" style="fill:#22A195"></path><path d="M216,95.33c-.3.16-.19.86.08,1.39s.71,1,1.07.83.33-.72.4-.91a.63.63,0,0,0-.06-.7,1.09,1.09,0,0,0-.7-.39C216.56,95.47,216.2,95.22,216,95.33Z" style="opacity:0.1"></path><path d="M212.13,92.5c-.19.29.26.85.76,1.17s1.12.51,1.35.18-.08-.78-.12-1a.62.62,0,0,0-.39-.58,1.11,1.11,0,0,0-.81,0C212.71,92.33,212.27,92.29,212.13,92.5Z" style="fill:#22A195"></path><path d="M212.13,92.5c-.19.29.26.85.76,1.17s1.12.51,1.35.18-.08-.78-.12-1a.62.62,0,0,0-.39-.58,1.11,1.11,0,0,0-.81,0C212.71,92.33,212.27,92.29,212.13,92.5Z" style="opacity:0.1"></path><path d="M205.74,92.35c0,.21.46.31.83.27s.75-.18.74-.43-.35-.36-.44-.44a.38.38,0,0,0-.42-.13.66.66,0,0,0-.4.31C206,92,205.73,92.18,205.74,92.35Z" style="fill:#22A195"></path><path d="M205.74,92.35c0,.21.46.31.83.27s.75-.18.74-.43-.35-.36-.44-.44a.38.38,0,0,0-.42-.13.66.66,0,0,0-.4.31C206,92,205.73,92.18,205.74,92.35Z" style="opacity:0.1"></path><path d="M199.59,99.42c.2.09.5-.24.66-.58s.21-.74,0-.85-.48.12-.6.16a.39.39,0,0,0-.33.3.7.7,0,0,0,.08.5C199.43,99.07,199.44,99.35,199.59,99.42Z" style="fill:#22A195"></path><path d="M199.59,99.42c.2.09.5-.24.66-.58s.21-.74,0-.85-.48.12-.6.16a.39.39,0,0,0-.33.3.7.7,0,0,0,.08.5C199.43,99.07,199.44,99.35,199.59,99.42Z" style="opacity:0.1"></path><path d="M202.64,108.28c.18-.12.05-.55-.17-.85s-.54-.56-.74-.42-.14.48-.17.6a.4.4,0,0,0,.1.43.72.72,0,0,0,.47.18C202.26,108.25,202.51,108.38,202.64,108.28Z" style="fill:#22A195"></path><path d="M202.64,108.28c.18-.12.05-.55-.17-.85s-.54-.56-.74-.42-.14.48-.17.6a.4.4,0,0,0,.1.43.72.72,0,0,0,.47.18C202.26,108.25,202.51,108.38,202.64,108.28Z" style="opacity:0.1"></path><path d="M211.84,110.07c0-.21-.45-.31-.83-.27s-.74.18-.73.43.35.36.44.44a.38.38,0,0,0,.42.13c.24,0,.3-.21.39-.31S211.86,110.24,211.84,110.07Z" style="fill:#22A195"></path><path d="M211.84,110.07c0-.21-.45-.31-.83-.27s-.74.18-.73.43.35.36.44.44a.38.38,0,0,0,.42.13c.24,0,.3-.21.39-.31S211.86,110.24,211.84,110.07Z" style="opacity:0.1"></path><path d="M218,103c-.2-.09-.5.24-.66.58s-.21.74,0,.85.48-.12.6-.16a.38.38,0,0,0,.32-.3.7.7,0,0,0-.07-.5C218.16,103.35,218.14,103.07,218,103Z" style="fill:#22A195"></path><path d="M218,103c-.2-.09-.5.24-.66.58s-.21.74,0,.85.48-.12.6-.16a.38.38,0,0,0,.32-.3.7.7,0,0,0-.07-.5C218.16,103.35,218.14,103.07,218,103Z" style="opacity:0.1"></path><path d="M215,94.14c-.18.12,0,.55.17.85s.54.56.74.42.14-.47.17-.6a.42.42,0,0,0-.1-.43.74.74,0,0,0-.47-.18C215.32,94.17,215.08,94,215,94.14Z" style="fill:#22A195"></path><path d="M215,94.14c-.18.12,0,.55.17.85s.54.56.74.42.14-.47.17-.6a.42.42,0,0,0-.1-.43.74.74,0,0,0-.47-.18C215.32,94.17,215.08,94,215,94.14Z" style="opacity:0.1"></path><path d="M228.51,155.39c-1.25,5.37-6.58,7.1-10.57,6.17a9.19,9.19,0,0,1-4.38-2.4,8.23,8.23,0,0,1-2.32-7.82c1.11-4.72,4.85-8,10.42-6.72a9.52,9.52,0,0,1,4.26,2.13A8.7,8.7,0,0,1,228.51,155.39Z" style="fill:#22A195"></path><path d="M223.41,151.68a4.84,4.84,0,0,1-6,3.47A5.09,5.09,0,0,1,215,153.8a4.62,4.62,0,0,1-1.31-4.4c.63-2.66,2.73-4.53,5.87-3.79a5.44,5.44,0,0,1,2.4,1.2A4.91,4.91,0,0,1,223.41,151.68Z" style="fill:#fff;opacity:0.1"></path><path d="M228.51,155.39c-1.25,5.37-6.58,7.1-10.57,6.17a9.19,9.19,0,0,1-4.38-2.4,9.42,9.42,0,0,0,8.26.34c5.67-2.69,6-8.72,4.1-12.75A8.7,8.7,0,0,1,228.51,155.39Z" style="opacity:0.05"></path><path d="M218.51,144c0,.35.65.6,1.24.63s1.22-.12,1.26-.51-.47-.64-.59-.8a.63.63,0,0,0-.64-.3c-.38,0-.52.27-.69.41S218.52,143.69,218.51,144Z" style="fill:#22A195"></path><path d="M218.51,144c0,.35.65.6,1.24.63s1.22-.12,1.26-.51-.47-.64-.59-.8a.63.63,0,0,0-.64-.3c-.38,0-.52.27-.69.41S218.52,143.69,218.51,144Z" style="opacity:0.1"></path><path d="M214.14,145.87c.15.3.86.19,1.39-.08s1-.71.83-1.07-.72-.33-.91-.4a.63.63,0,0,0-.7.06,1.16,1.16,0,0,0-.4.7C214.28,145.28,214,145.64,214.14,145.87Z" style="fill:#22A195"></path><path d="M214.14,145.87c.15.3.86.19,1.39-.08s1-.71.83-1.07-.72-.33-.91-.4a.63.63,0,0,0-.7.06,1.16,1.16,0,0,0-.4.7C214.28,145.28,214,145.64,214.14,145.87Z" style="opacity:0.1"></path><path d="M211.31,149.71c.29.19.84-.26,1.17-.76s.5-1.12.18-1.35-.79.08-1,.12a.61.61,0,0,0-.57.39,1.11,1.11,0,0,0,0,.81C211.14,149.13,211.1,149.57,211.31,149.71Z" style="fill:#22A195"></path><path d="M211.31,149.71c.29.19.84-.26,1.17-.76s.5-1.12.18-1.35-.79.08-1,.12a.61.61,0,0,0-.57.39,1.11,1.11,0,0,0,0,.81C211.14,149.13,211.1,149.57,211.31,149.71Z" style="opacity:0.1"></path><path d="M210.79,154.45c.34,0,.59-.65.63-1.24s-.13-1.22-.52-1.26-.64.47-.8.59a.63.63,0,0,0-.3.64c0,.38.27.52.41.69S210.53,154.44,210.79,154.45Z" style="fill:#22A195"></path><path d="M210.79,154.45c.34,0,.59-.65.63-1.24s-.13-1.22-.52-1.26-.64.47-.8.59a.63.63,0,0,0-.3.64c0,.38.27.52.41.69S210.53,154.44,210.79,154.45Z" style="opacity:0.1"></path><path d="M212.7,158.82c.31-.15.2-.86-.08-1.39s-.71-1-1.07-.83-.32.72-.4.91a.63.63,0,0,0,.06.7,1.09,1.09,0,0,0,.7.39C212.11,158.68,212.47,158.94,212.7,158.82Z" style="fill:#22A195"></path><path d="M212.7,158.82c.31-.15.2-.86-.08-1.39s-.71-1-1.07-.83-.32.72-.4.91a.63.63,0,0,0,.06.7,1.09,1.09,0,0,0,.7.39C212.11,158.68,212.47,158.94,212.7,158.82Z" style="opacity:0.1"></path><path d="M216.54,161.65c.19-.29-.26-.84-.76-1.17s-1.12-.5-1.34-.18.08.78.11,1a.61.61,0,0,0,.4.57,1.09,1.09,0,0,0,.8,0C216,161.82,216.4,161.86,216.54,161.65Z" style="fill:#22A195"></path><path d="M216.54,161.65c.19-.29-.26-.84-.76-1.17s-1.12-.5-1.34-.18.08.78.11,1a.61.61,0,0,0,.4.57,1.09,1.09,0,0,0,.8,0C216,161.82,216.4,161.86,216.54,161.65Z" style="opacity:0.1"></path><path d="M221.28,162.17c0-.34-.64-.59-1.24-.63s-1.22.13-1.25.52.46.64.59.8a.61.61,0,0,0,.63.3,1.06,1.06,0,0,0,.69-.41C220.87,162.61,221.27,162.43,221.28,162.17Z" style="fill:#22A195"></path><path d="M221.28,162.17c0-.34-.64-.59-1.24-.63s-1.22.13-1.25.52.46.64.59.8a.61.61,0,0,0,.63.3,1.06,1.06,0,0,0,.69-.41C220.87,162.61,221.27,162.43,221.28,162.17Z" style="opacity:0.1"></path><path d="M225.65,160.26c-.15-.31-.86-.2-1.39.08s-1,.71-.83,1.07.72.32.91.4a.63.63,0,0,0,.7-.06c.32-.22.32-.5.4-.7S225.77,160.49,225.65,160.26Z" style="fill:#22A195"></path><path d="M225.65,160.26c-.15-.31-.86-.2-1.39.08s-1,.71-.83,1.07.72.32.91.4a.63.63,0,0,0,.7-.06c.32-.22.32-.5.4-.7S225.77,160.49,225.65,160.26Z" style="opacity:0.1"></path><path d="M228.48,156.42c-.29-.19-.84.26-1.17.76s-.5,1.12-.18,1.34.79-.08,1-.11a.61.61,0,0,0,.57-.4,1.09,1.09,0,0,0,0-.8C228.65,157,228.7,156.56,228.48,156.42Z" style="fill:#22A195"></path><path d="M228.48,156.42c-.29-.19-.84.26-1.17.76s-.5,1.12-.18,1.34.79-.08,1-.11a.61.61,0,0,0,.57-.4,1.09,1.09,0,0,0,0-.8C228.65,157,228.7,156.56,228.48,156.42Z" style="opacity:0.1"></path><path d="M229,151.68c-.35,0-.6.64-.63,1.24s.12,1.22.51,1.25.64-.46.8-.59a.62.62,0,0,0,.3-.63,1.06,1.06,0,0,0-.41-.69C229.45,152.09,229.27,151.69,229,151.68Z" style="fill:#22A195"></path><path d="M229,151.68c-.35,0-.6.64-.63,1.24s.12,1.22.51,1.25.64-.46.8-.59a.62.62,0,0,0,.3-.63,1.06,1.06,0,0,0-.41-.69C229.45,152.09,229.27,151.69,229,151.68Z" style="opacity:0.1"></path><path d="M227.09,147.31c-.31.15-.19.86.08,1.39s.71,1,1.07.83.32-.72.4-.91a.63.63,0,0,0-.06-.7c-.22-.32-.5-.32-.7-.4S227.32,147.19,227.09,147.31Z" style="fill:#22A195"></path><path d="M227.09,147.31c-.31.15-.19.86.08,1.39s.71,1,1.07.83.32-.72.4-.91a.63.63,0,0,0-.06-.7c-.22-.32-.5-.32-.7-.4S227.32,147.19,227.09,147.31Z" style="opacity:0.1"></path><path d="M223.25,144.48c-.19.29.26.84.76,1.17s1.12.5,1.35.18-.09-.79-.12-1a.61.61,0,0,0-.39-.57,1.11,1.11,0,0,0-.81,0C223.83,144.31,223.39,144.26,223.25,144.48Z" style="fill:#22A195"></path><path d="M223.25,144.48c-.19.29.26.84.76,1.17s1.12.5,1.35.18-.09-.79-.12-1a.61.61,0,0,0-.39-.57,1.11,1.11,0,0,0-.81,0C223.83,144.31,223.39,144.26,223.25,144.48Z" style="opacity:0.1"></path><path d="M216.86,144.32c0,.22.46.32.83.28s.75-.19.74-.43-.35-.36-.44-.45a.42.42,0,0,0-.42-.13.71.71,0,0,0-.4.32C217.08,144,216.85,144.16,216.86,144.32Z" style="fill:#22A195"></path><path d="M216.86,144.32c0,.22.46.32.83.28s.75-.19.74-.43-.35-.36-.44-.45a.42.42,0,0,0-.42-.13.71.71,0,0,0-.4.32C217.08,144,216.85,144.16,216.86,144.32Z" style="opacity:0.1"></path><path d="M210.71,151.39c.2.1.5-.23.66-.57s.21-.75,0-.86-.48.12-.6.16a.39.39,0,0,0-.33.3.7.7,0,0,0,.08.5C210.55,151.05,210.56,151.33,210.71,151.39Z" style="fill:#22A195"></path><path d="M210.71,151.39c.2.1.5-.23.66-.57s.21-.75,0-.86-.48.12-.6.16a.39.39,0,0,0-.33.3.7.7,0,0,0,.08.5C210.55,151.05,210.56,151.33,210.71,151.39Z" style="opacity:0.1"></path><path d="M213.76,160.26c.18-.12,0-.55-.17-.86s-.54-.55-.75-.42-.13.48-.16.61a.37.37,0,0,0,.1.42.68.68,0,0,0,.47.19C213.38,160.23,213.63,160.35,213.76,160.26Z" style="fill:#22A195"></path><path d="M213.76,160.26c.18-.12,0-.55-.17-.86s-.54-.55-.75-.42-.13.48-.16.61a.37.37,0,0,0,.1.42.68.68,0,0,0,.47.19C213.38,160.23,213.63,160.35,213.76,160.26Z" style="opacity:0.1"></path><path d="M223,162.05c0-.22-.45-.31-.83-.28s-.74.19-.73.44.35.35.44.44a.39.39,0,0,0,.42.13c.24-.06.3-.22.39-.32S223,162.21,223,162.05Z" style="fill:#22A195"></path><path d="M223,162.05c0-.22-.45-.31-.83-.28s-.74.19-.73.44.35.35.44.44a.39.39,0,0,0,.42.13c.24-.06.3-.22.39-.32S223,162.21,223,162.05Z" style="opacity:0.1"></path><path d="M229.12,155c-.2-.09-.5.24-.66.58s-.21.74,0,.85.48-.12.6-.16a.4.4,0,0,0,.32-.3.7.7,0,0,0-.07-.5C229.27,155.32,229.26,155.05,229.12,155Z" style="fill:#22A195"></path><path d="M229.12,155c-.2-.09-.5.24-.66.58s-.21.74,0,.85.48-.12.6-.16a.4.4,0,0,0,.32-.3.7.7,0,0,0-.07-.5C229.27,155.32,229.26,155.05,229.12,155Z" style="opacity:0.1"></path><path d="M226.07,146.11c-.18.13,0,.56.17.86s.53.55.74.42.14-.48.17-.6a.42.42,0,0,0-.1-.43.7.7,0,0,0-.47-.19C226.44,146.15,226.2,146,226.07,146.11Z" style="fill:#22A195"></path><path d="M226.07,146.11c-.18.13,0,.56.17.86s.53.55.74.42.14-.48.17-.6a.42.42,0,0,0-.1-.43.7.7,0,0,0-.47-.19C226.44,146.15,226.2,146,226.07,146.11Z" style="opacity:0.1"></path><path d="M259.11,129.22c-1.07,4.55-5.58,6-9,5.22a7.68,7.68,0,0,1-3.71-2,6.92,6.92,0,0,1-2-6.62c.93-4,4.1-6.81,8.82-5.7a8.21,8.21,0,0,1,3.61,1.81A7.38,7.38,0,0,1,259.11,129.22Z" style="fill:#22A195"></path><path d="M254.79,126.08a4.1,4.1,0,0,1-5,2.94,4.39,4.39,0,0,1-2.09-1.15,4.13,4.13,0,0,1,3.87-6.93,4.63,4.63,0,0,1,2,1A4.19,4.19,0,0,1,254.79,126.08Z" style="fill:#fff;opacity:0.1"></path><path d="M259.11,129.22c-1.07,4.55-5.58,6-9,5.22a7.68,7.68,0,0,1-3.71-2,8,8,0,0,0,7,.29c4.81-2.28,5.11-7.38,3.48-10.8A7.38,7.38,0,0,1,259.11,129.22Z" style="opacity:0.05"></path><path d="M250.63,119.53c0,.29.55.51,1.05.53s1-.1,1.07-.43-.39-.54-.5-.68a.53.53,0,0,0-.54-.25c-.32,0-.44.23-.58.34S250.65,119.31,250.63,119.53Z" style="fill:#22A195"></path><path d="M250.63,119.53c0,.29.55.51,1.05.53s1-.1,1.07-.43-.39-.54-.5-.68a.53.53,0,0,0-.54-.25c-.32,0-.44.23-.58.34S250.65,119.31,250.63,119.53Z" style="opacity:0.1"></path><path d="M246.93,121.15c.13.26.73.17,1.18-.06s.84-.61.7-.91-.61-.27-.77-.34a.54.54,0,0,0-.59,0,1,1,0,0,0-.34.59C247.05,120.65,246.83,121,246.93,121.15Z" style="fill:#22A195"></path><path d="M246.93,121.15c.13.26.73.17,1.18-.06s.84-.61.7-.91-.61-.27-.77-.34a.54.54,0,0,0-.59,0,1,1,0,0,0-.34.59C247.05,120.65,246.83,121,246.93,121.15Z" style="opacity:0.1"></path><path d="M244.54,124.41c.24.16.71-.22,1-.65s.43-.94.16-1.14-.67.07-.84.1a.53.53,0,0,0-.49.34,1,1,0,0,0,0,.68C244.39,123.92,244.35,124.29,244.54,124.41Z" style="fill:#22A195"></path><path d="M244.54,124.41c.24.16.71-.22,1-.65s.43-.94.16-1.14-.67.07-.84.1a.53.53,0,0,0-.49.34,1,1,0,0,0,0,.68C244.39,123.92,244.35,124.29,244.54,124.41Z" style="opacity:0.1"></path><path d="M244.09,128.42c.29,0,.51-.54.53-1s-.1-1-.43-1.06-.55.39-.68.5a.52.52,0,0,0-.25.53c0,.33.23.45.34.59S243.87,128.41,244.09,128.42Z" style="fill:#22A195"></path><path d="M244.09,128.42c.29,0,.51-.54.53-1s-.1-1-.43-1.06-.55.39-.68.5a.52.52,0,0,0-.25.53c0,.33.23.45.34.59S243.87,128.41,244.09,128.42Z" style="opacity:0.1"></path><path d="M245.71,132.13c.26-.14.17-.73-.06-1.18s-.61-.85-.91-.7-.28.61-.34.77a.52.52,0,0,0,0,.59.92.92,0,0,0,.59.33C245.21,132,245.51,132.22,245.71,132.13Z" style="fill:#22A195"></path><path d="M245.71,132.13c.26-.14.17-.73-.06-1.18s-.61-.85-.91-.7-.28.61-.34.77a.52.52,0,0,0,0,.59.92.92,0,0,0,.59.33C245.21,132,245.51,132.22,245.71,132.13Z" style="opacity:0.1"></path><path d="M249,134.52c.16-.24-.22-.71-.65-1s-.94-.43-1.14-.15.07.66.1.83a.53.53,0,0,0,.33.49,1,1,0,0,0,.69,0C248.48,134.67,248.85,134.7,249,134.52Z" style="fill:#22A195"></path><path d="M249,134.52c.16-.24-.22-.71-.65-1s-.94-.43-1.14-.15.07.66.1.83a.53.53,0,0,0,.33.49,1,1,0,0,0,.69,0C248.48,134.67,248.85,134.7,249,134.52Z" style="opacity:0.1"></path><path d="M253,135c0-.29-.54-.51-1-.54s-1,.11-1.06.44.39.54.5.68a.52.52,0,0,0,.53.25,1,1,0,0,0,.59-.34C252.63,135.34,253,135.19,253,135Z" style="fill:#22A195"></path><path d="M253,135c0-.29-.54-.51-1-.54s-1,.11-1.06.44.39.54.5.68a.52.52,0,0,0,.53.25,1,1,0,0,0,.59-.34C252.63,135.34,253,135.19,253,135Z" style="opacity:0.1"></path><path d="M256.68,133.35c-.13-.26-.72-.17-1.17.06s-.85.61-.71.91.61.27.78.33a.52.52,0,0,0,.59,0,.94.94,0,0,0,.33-.6C256.57,133.84,256.78,133.54,256.68,133.35Z" style="fill:#22A195"></path><path d="M256.68,133.35c-.13-.26-.72-.17-1.17.06s-.85.61-.71.91.61.27.78.33a.52.52,0,0,0,.59,0,.94.94,0,0,0,.33-.6C256.57,133.84,256.78,133.54,256.68,133.35Z" style="opacity:0.1"></path><path d="M259.08,130.09c-.24-.16-.71.22-1,.64s-.43,1-.15,1.14.66-.06.83-.09a.53.53,0,0,0,.49-.34.93.93,0,0,0,0-.68C259.23,130.58,259.26,130.21,259.08,130.09Z" style="fill:#22A195"></path><path d="M259.08,130.09c-.24-.16-.71.22-1,.64s-.43,1-.15,1.14.66-.06.83-.09a.53.53,0,0,0,.49-.34.93.93,0,0,0,0-.68C259.23,130.58,259.26,130.21,259.08,130.09Z" style="opacity:0.1"></path><path d="M259.53,126.07c-.29,0-.51.55-.54,1.06s.11,1,.44,1.06.54-.39.67-.5a.52.52,0,0,0,.26-.54.92.92,0,0,0-.35-.58C259.9,126.43,259.75,126.09,259.53,126.07Z" style="fill:#22A195"></path><path d="M259.53,126.07c-.29,0-.51.55-.54,1.06s.11,1,.44,1.06.54-.39.67-.5a.52.52,0,0,0,.26-.54.92.92,0,0,0-.35-.58C259.9,126.43,259.75,126.09,259.53,126.07Z" style="opacity:0.1"></path><path d="M257.9,122.37c-.26.13-.16.73.07,1.18s.6.84.91.7.27-.61.33-.77a.54.54,0,0,0,0-.59c-.19-.27-.43-.27-.6-.34S258.1,122.27,257.9,122.37Z" style="fill:#22A195"></path><path d="M257.9,122.37c-.26.13-.16.73.07,1.18s.6.84.91.7.27-.61.33-.77a.54.54,0,0,0,0-.59c-.19-.27-.43-.27-.6-.34S258.1,122.27,257.9,122.37Z" style="opacity:0.1"></path><path d="M254.65,120c-.16.24.22.71.64,1s1,.42,1.14.15-.07-.67-.09-.84a.51.51,0,0,0-.34-.48.93.93,0,0,0-.68,0C255.14,119.83,254.77,119.79,254.65,120Z" style="fill:#22A195"></path><path d="M254.65,120c-.16.24.22.71.64,1s1,.42,1.14.15-.07-.67-.09-.84a.51.51,0,0,0-.34-.48.93.93,0,0,0-.68,0C255.14,119.83,254.77,119.79,254.65,120Z" style="opacity:0.1"></path><path d="M249.24,119.84c0,.19.39.27.7.24s.64-.16.62-.37-.29-.3-.37-.37a.32.32,0,0,0-.36-.11c-.19,0-.25.18-.33.26S249.23,119.71,249.24,119.84Z" style="fill:#22A195"></path><path d="M249.24,119.84c0,.19.39.27.7.24s.64-.16.62-.37-.29-.3-.37-.37a.32.32,0,0,0-.36-.11c-.19,0-.25.18-.33.26S249.23,119.71,249.24,119.84Z" style="opacity:0.1"></path><path d="M244,125.84c.16.07.42-.21.55-.49s.18-.63,0-.73-.41.11-.52.14a.33.33,0,0,0-.27.25.54.54,0,0,0,.07.42C243.89,125.54,243.9,125.78,244,125.84Z" style="fill:#22A195"></path><path d="M244,125.84c.16.07.42-.21.55-.49s.18-.63,0-.73-.41.11-.52.14a.33.33,0,0,0-.27.25.54.54,0,0,0,.07.42C243.89,125.54,243.9,125.78,244,125.84Z" style="opacity:0.1"></path><path d="M246.61,133.34c.15-.1,0-.46-.15-.72s-.45-.47-.63-.36-.11.41-.13.51a.33.33,0,0,0,.08.37.56.56,0,0,0,.4.15C246.29,133.32,246.5,133.42,246.61,133.34Z" style="fill:#22A195"></path><path d="M246.61,133.34c.15-.1,0-.46-.15-.72s-.45-.47-.63-.36-.11.41-.13.51a.33.33,0,0,0,.08.37.56.56,0,0,0,.4.15C246.29,133.32,246.5,133.42,246.61,133.34Z" style="opacity:0.1"></path><path d="M254.41,134.86c0-.18-.39-.26-.71-.23s-.63.15-.62.36.3.31.37.38a.34.34,0,0,0,.36.11.55.55,0,0,0,.33-.27C254.22,135.13,254.42,135,254.41,134.86Z" style="fill:#22A195"></path><path d="M254.41,134.86c0-.18-.39-.26-.71-.23s-.63.15-.62.36.3.31.37.38a.34.34,0,0,0,.36.11.55.55,0,0,0,.33-.27C254.22,135.13,254.42,135,254.41,134.86Z" style="opacity:0.1"></path><path d="M259.62,128.87c-.17-.08-.43.2-.56.49s-.18.63,0,.72.41-.1.51-.13a.32.32,0,0,0,.27-.26.61.61,0,0,0-.06-.42C259.75,129.16,259.74,128.93,259.62,128.87Z" style="fill:#22A195"></path><path d="M259.62,128.87c-.17-.08-.43.2-.56.49s-.18.63,0,.72.41-.1.51-.13a.32.32,0,0,0,.27-.26.61.61,0,0,0-.06-.42C259.75,129.16,259.74,128.93,259.62,128.87Z" style="opacity:0.1"></path><path d="M257,121.36c-.15.11,0,.47.15.73s.46.47.63.35.12-.4.14-.51a.33.33,0,0,0-.08-.36.63.63,0,0,0-.4-.16C257.36,121.39,257.15,121.28,257,121.36Z" style="fill:#22A195"></path><path d="M257,121.36c-.15.11,0,.47.15.73s.46.47.63.35.12-.4.14-.51a.33.33,0,0,0-.08-.36.63.63,0,0,0-.4-.16C257.36,121.39,257.15,121.28,257,121.36Z" style="opacity:0.1"></path><path d="M176,85.15c-1.06,4.56-5.58,6-9,5.23a7.9,7.9,0,0,1-3.71-2,7,7,0,0,1-2-6.63c.94-4,4.11-6.8,8.83-5.69a8.25,8.25,0,0,1,3.61,1.8A7.38,7.38,0,0,1,176,85.15Z" style="fill:#22A195"></path><path d="M171.66,82a4.1,4.1,0,0,1-5,2.95,4.43,4.43,0,0,1-2.09-1.15,4.14,4.14,0,0,1,3.87-6.94,4.68,4.68,0,0,1,2,1A4.16,4.16,0,0,1,171.66,82Z" style="fill:#fff;opacity:0.1"></path><path d="M176,85.15c-1.06,4.56-5.58,6-9,5.23a7.9,7.9,0,0,1-3.71-2,8,8,0,0,0,7,.29c4.81-2.28,5.1-7.39,3.48-10.81A7.38,7.38,0,0,1,176,85.15Z" style="opacity:0.05"></path><path d="M167.51,75.47c0,.29.55.51,1.05.53s1-.1,1.06-.43-.39-.55-.5-.68a.54.54,0,0,0-.53-.26A.92.92,0,0,0,168,75C167.86,75.1,167.52,75.25,167.51,75.47Z" style="fill:#22A195"></path><path d="M167.51,75.47c0,.29.55.51,1.05.53s1-.1,1.06-.43-.39-.55-.5-.68a.54.54,0,0,0-.53-.26A.92.92,0,0,0,168,75C167.86,75.1,167.52,75.25,167.51,75.47Z" style="opacity:0.1"></path><path d="M163.81,77.09c.13.26.72.17,1.17-.06s.85-.61.71-.91-.61-.28-.77-.34a.54.54,0,0,0-.6,0,.92.92,0,0,0-.33.59C163.93,76.59,163.71,76.89,163.81,77.09Z" style="fill:#22A195"></path><path d="M163.81,77.09c.13.26.72.17,1.17-.06s.85-.61.71-.91-.61-.28-.77-.34a.54.54,0,0,0-.6,0,.92.92,0,0,0-.33.59C163.93,76.59,163.71,76.89,163.81,77.09Z" style="opacity:0.1"></path><path d="M161.41,80.34c.24.17.71-.22,1-.64s.43-1,.15-1.14-.66.07-.83.1a.52.52,0,0,0-.49.33.92.92,0,0,0,0,.68C161.27,79.85,161.23,80.22,161.41,80.34Z" style="fill:#22A195"></path><path d="M161.41,80.34c.24.17.71-.22,1-.64s.43-1,.15-1.14-.66.07-.83.1a.52.52,0,0,0-.49.33.92.92,0,0,0,0,.68C161.27,79.85,161.23,80.22,161.41,80.34Z" style="opacity:0.1"></path><path d="M161,84.36c.3,0,.51-.55.54-1s-.1-1-.44-1.06-.54.39-.67.5a.5.5,0,0,0-.26.53.92.92,0,0,0,.35.59C160.59,84,160.75,84.35,161,84.36Z" style="fill:#22A195"></path><path d="M161,84.36c.3,0,.51-.55.54-1s-.1-1-.44-1.06-.54.39-.67.5a.5.5,0,0,0-.26.53.92.92,0,0,0,.35.59C160.59,84,160.75,84.35,161,84.36Z" style="opacity:0.1"></path><path d="M162.59,88.06c.26-.13.16-.73-.07-1.17s-.6-.85-.91-.71-.27.61-.33.77a.54.54,0,0,0,0,.59.93.93,0,0,0,.6.34C162.09,87.94,162.39,88.16,162.59,88.06Z" style="fill:#22A195"></path><path d="M162.59,88.06c.26-.13.16-.73-.07-1.17s-.6-.85-.91-.71-.27.61-.33.77a.54.54,0,0,0,0,.59.93.93,0,0,0,.6.34C162.09,87.94,162.39,88.16,162.59,88.06Z" style="opacity:0.1"></path><path d="M165.84,90.46c.16-.25-.22-.72-.64-1s-.95-.43-1.14-.15.07.66.09.83a.55.55,0,0,0,.34.49.87.87,0,0,0,.68,0C165.35,90.6,165.72,90.64,165.84,90.46Z" style="fill:#22A195"></path><path d="M165.84,90.46c.16-.25-.22-.72-.64-1s-.95-.43-1.14-.15.07.66.09.83a.55.55,0,0,0,.34.49.87.87,0,0,0,.68,0C165.35,90.6,165.72,90.64,165.84,90.46Z" style="opacity:0.1"></path><path d="M169.86,90.9c0-.29-.55-.5-1.05-.53s-1,.1-1.07.44.39.54.5.67a.52.52,0,0,0,.54.26,1,1,0,0,0,.59-.35C169.51,91.28,169.84,91.12,169.86,90.9Z" style="fill:#22A195"></path><path d="M169.86,90.9c0-.29-.55-.5-1.05-.53s-1,.1-1.07.44.39.54.5.67a.52.52,0,0,0,.54.26,1,1,0,0,0,.59-.35C169.51,91.28,169.84,91.12,169.86,90.9Z" style="opacity:0.1"></path><path d="M173.56,89.28c-.13-.26-.73-.16-1.18.07s-.84.6-.7.91.61.27.77.33a.52.52,0,0,0,.59,0c.27-.18.27-.42.34-.59S173.66,89.48,173.56,89.28Z" style="fill:#22A195"></path><path d="M173.56,89.28c-.13-.26-.73-.16-1.18.07s-.84.6-.7.91.61.27.77.33a.52.52,0,0,0,.59,0c.27-.18.27-.42.34-.59S173.66,89.48,173.56,89.28Z" style="opacity:0.1"></path><path d="M176,86c-.24-.16-.71.22-1,.64s-.43,1-.16,1.14.67-.07.84-.09a.55.55,0,0,0,.49-.34,1,1,0,0,0,0-.68C176.1,86.52,176.14,86.15,176,86Z" style="fill:#22A195"></path><path d="M176,86c-.24-.16-.71.22-1,.64s-.43,1-.16,1.14.67-.07.84-.09a.55.55,0,0,0,.49-.34,1,1,0,0,0,0-.68C176.1,86.52,176.14,86.15,176,86Z" style="opacity:0.1"></path><path d="M176.4,82c-.29,0-.51.55-.53,1s.1,1,.43,1.07.55-.4.68-.5a.54.54,0,0,0,.25-.54.9.9,0,0,0-.34-.59C176.77,82.36,176.62,82,176.4,82Z" style="fill:#22A195"></path><path d="M176.4,82c-.29,0-.51.55-.53,1s.1,1,.43,1.07.55-.4.68-.5a.54.54,0,0,0,.25-.54.9.9,0,0,0-.34-.59C176.77,82.36,176.62,82,176.4,82Z" style="opacity:0.1"></path><path d="M174.78,78.31c-.26.13-.17.73.06,1.18s.61.84.91.7.28-.61.34-.77a.52.52,0,0,0-.05-.59c-.18-.27-.42-.27-.59-.34S175,78.21,174.78,78.31Z" style="fill:#22A195"></path><path d="M174.78,78.31c-.26.13-.17.73.06,1.18s.61.84.91.7.28-.61.34-.77a.52.52,0,0,0-.05-.59c-.18-.27-.42-.27-.59-.34S175,78.21,174.78,78.31Z" style="opacity:0.1"></path><path d="M171.52,75.91c-.16.25.22.72.65,1s.94.43,1.14.16-.07-.67-.1-.84a.52.52,0,0,0-.33-.49.94.94,0,0,0-.69,0C172,75.77,171.65,75.73,171.52,75.91Z" style="fill:#22A195"></path><path d="M171.52,75.91c-.16.25.22.72.65,1s.94.43,1.14.16-.07-.67-.1-.84a.52.52,0,0,0-.33-.49.94.94,0,0,0-.69,0C172,75.77,171.65,75.73,171.52,75.91Z" style="opacity:0.1"></path><path d="M166.11,75.78c0,.18.39.27.71.24s.63-.16.62-.37-.29-.3-.37-.38a.36.36,0,0,0-.36-.11.58.58,0,0,0-.33.27C166.3,75.52,166.1,75.64,166.11,75.78Z" style="fill:#22A195"></path><path d="M166.11,75.78c0,.18.39.27.71.24s.63-.16.62-.37-.29-.3-.37-.38a.36.36,0,0,0-.36-.11.58.58,0,0,0-.33.27C166.3,75.52,166.1,75.64,166.11,75.78Z" style="opacity:0.1"></path><path d="M160.9,81.77c.17.08.43-.2.56-.49s.18-.63,0-.72-.41.1-.51.14a.32.32,0,0,0-.27.25.61.61,0,0,0,.06.42C160.77,81.48,160.78,81.71,160.9,81.77Z" style="fill:#22A195"></path><path d="M160.9,81.77c.17.08.43-.2.56-.49s.18-.63,0-.72-.41.1-.51.14a.32.32,0,0,0-.27.25.61.61,0,0,0,.06.42C160.77,81.48,160.78,81.71,160.9,81.77Z" style="opacity:0.1"></path><path d="M163.49,89.28c.15-.1,0-.47-.15-.72s-.45-.47-.63-.36-.12.41-.14.51a.34.34,0,0,0,.08.37.61.61,0,0,0,.4.15C163.17,89.25,163.37,89.36,163.49,89.28Z" style="fill:#22A195"></path><path d="M163.49,89.28c.15-.1,0-.47-.15-.72s-.45-.47-.63-.36-.12.41-.14.51a.34.34,0,0,0,.08.37.61.61,0,0,0,.4.15C163.17,89.25,163.37,89.36,163.49,89.28Z" style="opacity:0.1"></path><path d="M171.28,90.8c0-.18-.39-.27-.7-.24s-.63.16-.62.37.29.3.37.38a.36.36,0,0,0,.36.11c.19,0,.25-.19.33-.27S171.29,90.94,171.28,90.8Z" style="fill:#22A195"></path><path d="M171.28,90.8c0-.18-.39-.27-.7-.24s-.63.16-.62.37.29.3.37.38a.36.36,0,0,0,.36.11c.19,0,.25-.19.33-.27S171.29,90.94,171.28,90.8Z" style="opacity:0.1"></path><path d="M176.49,84.81c-.16-.08-.42.2-.55.49s-.18.63,0,.72.4-.1.51-.14a.32.32,0,0,0,.27-.25.56.56,0,0,0-.07-.42C176.63,85.1,176.62,84.87,176.49,84.81Z" style="fill:#22A195"></path><path d="M176.49,84.81c-.16-.08-.42.2-.55.49s-.18.63,0,.72.4-.1.51-.14a.32.32,0,0,0,.27-.25.56.56,0,0,0-.07-.42C176.63,85.1,176.62,84.87,176.49,84.81Z" style="opacity:0.1"></path><path d="M173.91,77.3c-.15.1,0,.47.15.72s.45.47.63.36.11-.41.13-.51a.31.31,0,0,0-.08-.36.58.58,0,0,0-.4-.16C174.23,77.33,174,77.22,173.91,77.3Z" style="fill:#22A195"></path><path d="M173.91,77.3c-.15.1,0,.47.15.72s.45.47.63.36.11-.41.13-.51a.31.31,0,0,0-.08-.36.58.58,0,0,0-.4-.16C174.23,77.33,174,77.22,173.91,77.3Z" style="opacity:0.1"></path></g><g id="freepik--character-2--inject-103"><path d="M450.8,385.16s.74,46.44.74,46.47c-.11,8.7-.37,16.33-.87,20.26a.15.15,0,0,1,0,.07,6.17,6.17,0,0,1-.67,2.68s0,0-.06.05c-2.61,1.72-72.18,2.84-74.62,2.07s-.42-7.8,2.25-10,29.12-14.54,29.12-14.54l-.3-47.07Z" style="fill:#f7a9a0"></path><path d="M451.71,422.29s-.17,9.31-.17,9.34c-.11,8.7-.37,16.33-.87,20.26a.15.15,0,0,1,0,.07,12.22,12.22,0,0,1-.67,2.68s0,0-.06.05c-2.61,1.72-72.18,2.84-74.62,2.07s-.42-7.8,2.25-10,29.12-14.54,29.12-14.54l0-9.49Z" style="fill:#fff"></path><path d="M402.42,432.21c4.64-.72,10.26.17,13.68,3.56.13.13-.06.32-.2.27a65,65,0,0,0-13.48-3.25A.29.29,0,0,1,402.42,432.21Z" style="fill:#263238"></path><path d="M399,434.11c4.64-.72,10.26.17,13.69,3.57.13.13-.06.31-.21.26A64.78,64.78,0,0,0,399,434.7.3.3,0,0,1,399,434.11Z" style="fill:#263238"></path><path d="M395.63,436c4.64-.72,10.26.16,13.68,3.56.14.13-.05.32-.2.26a65.58,65.58,0,0,0-13.48-3.24A.29.29,0,0,1,395.63,436Z" style="fill:#263238"></path><path d="M375.31,456.76c2.44.78,72,.93,74.6-.8,1-.64,1.46-12.06,1.63-24.33v-.38l-44.89.22,0,.76s-26.44,12.34-29.12,14.54S372.86,456,375.31,456.76Z" style="fill:#22A195"></path><path d="M375.31,456.76c2.44.78,72,.93,74.6-.8,1-.64,1.46-12.06,1.63-24.33v-.38l-44.89.22,0,.76s-26.44,12.34-29.12,14.54S372.86,456,375.31,456.76Z" style="opacity:0.5"></path><path d="M376.05,454.05c11.72-.48,59.05-1.3,70.67-.88.1,0,.1.07,0,.08-11.61.72-58.94,1.16-70.67,1C375.81,454.24,375.8,454.06,376.05,454.05Z" style="fill:#263238"></path><path d="M410.21,431.59l-26.12,25.56a85.8,85.8,0,0,1-8.79-.39c-2.44-.78-.4-7.79,2.26-10s29.12-14.55,29.12-14.55l0-.75,3.43,0Z" style="opacity:0.1"></path><path d="M453.14,431l-50.72.6s-1.17-85.85-1.12-113.18C401.36,287.25,406,194.1,406,194.1l37.64.37a186.62,186.62,0,0,1,6.57,29.4c.6,4.35,1.53,17,0,22.82l-1.34,75.87Z" style="fill:#37474f"></path><path d="M409.41,376.83c-.46-13.55-.72-30.2-1-43.76q-.7-40.68.22-81.38c.34-15.21.9-30.43,1.5-45.63,0-.18-.26-.17-.27,0-1.71,27.22-2.53,54.5-2.82,81.77s0,57.35,1,84.46c.6,15.22,1.38,30.44,2.66,45.62a.11.11,0,0,0,.21,0C410.5,404.21,409.86,390.53,409.41,376.83Z" style="fill:#263238"></path><path d="M409.1,421.85c10.11-.68,20.28-.7,30.41-.51,2.86.06,5.73.14,8.59.28a.08.08,0,0,1,0,.16c-10.11.62-20.28.75-30.41.54-2.86-.06-5.73-.14-8.59-.3A.09.09,0,0,1,409.1,421.85Z" style="fill:#263238"></path><path d="M381.91,388.59s-.17,43.68-.17,43.71c-.11,8.7-.37,16.33-.87,20.26a.2.2,0,0,1,0,.07,6.17,6.17,0,0,1-.67,2.68l-.06.05c-2.61,1.72-72.18,2.84-74.62,2.06s-.42-7.79,2.25-10,29.12-14.55,29.12-14.55l2.56-44.18Z" style="fill:#f7a9a0"></path><path d="M381.91,423s-.17,9.31-.17,9.34c-.11,8.7-.37,16.33-.87,20.26a.2.2,0,0,1,0,.07,12.22,12.22,0,0,1-.67,2.68l-.06.05c-2.61,1.72-72.18,2.84-74.62,2.06s-.42-7.79,2.25-10,29.12-14.55,29.12-14.55l0-9.48Z" style="fill:#fff"></path><path d="M332.62,432.88c4.64-.72,10.26.16,13.68,3.56.13.13-.06.32-.2.27a65,65,0,0,0-13.48-3.25A.29.29,0,0,1,332.62,432.88Z" style="fill:#263238"></path><path d="M329.22,434.78c4.64-.72,10.26.17,13.69,3.56.13.14-.06.32-.21.27a64.8,64.8,0,0,0-13.48-3.25A.29.29,0,0,1,329.22,434.78Z" style="fill:#263238"></path><path d="M325.83,436.68c4.64-.71,10.26.17,13.68,3.57.14.13-.05.31-.2.26a64.93,64.93,0,0,0-13.48-3.24A.3.3,0,0,1,325.83,436.68Z" style="fill:#263238"></path><path d="M305.51,457.43c2.44.78,72.25,1.21,74.87-.52,1-.64,1.19-12.34,1.36-24.61v-.39l-44.89.23,0,.76s-26.44,12.34-29.12,14.54S303.06,456.66,305.51,457.43Z" style="fill:#22A195"></path><path d="M305.51,457.43c2.44.78,72.25,1.21,74.87-.52,1-.64,1.19-12.34,1.36-24.61v-.39l-44.89.23,0,.76s-26.44,12.34-29.12,14.54S303.06,456.66,305.51,457.43Z" style="opacity:0.5"></path><path d="M306.25,454.51c11.72-.41,59.05-.95,70.67-.46.1,0,.1.07,0,.07-11.62.66-58.95.82-70.68.58C306,454.69,306,454.52,306.25,454.51Z" style="fill:#263238"></path><path d="M421.36,242.42s-27.81,65.85-30.27,76.38c-2.33,9.94-6.44,113.5-6.44,113.5l-49.58-.39s7.29-104.67,8.21-115.29c1.21-13.95,13.36-45.76,26.23-79.76,5.45-14.41,12.79-28.53,16.63-43l56.36.56s-.74,25.44-12.5,43.74C430,238.2,424.74,240.57,421.36,242.42Z" style="fill:#37474f"></path><path d="M339.64,422.62c10.13-.49,20.3-.31,30.42.07,2.87.11,5.73.25,8.58.45.11,0,.1.15,0,.16-10.13.42-20.3.35-30.42,0-2.86-.12-5.73-.26-8.58-.47A.09.09,0,0,1,339.64,422.62Z" style="fill:#263238"></path><path d="M408.42,243.55a47.07,47.07,0,0,0,7.77-.62,75.48,75.48,0,0,0,7.54-2,58.82,58.82,0,0,1,7.39-1.13,25.85,25.85,0,0,0,7.25-2.08c.1,0,.19.11.08.16a45.11,45.11,0,0,1-6.95,2.94c-2.49.76-5.08.84-7.6,1.43a62.42,62.42,0,0,1-7.76,1.7,28,28,0,0,1-7.75-.2C408.29,243.71,408.33,243.55,408.42,243.55Z" style="fill:#263238"></path><path d="M403.57,284.68c.55-1.54,1.06-3.09,1.64-4.62,1.16-3.1,2.34-6.2,3.63-9.28,2.56-6.11,5-12.26,7.68-18.33,1.53-3.45,2.91-6.94,4.7-10.31,0-.08.2,0,.18,0-.92,3.16-2.2,6.24-3.35,9.35s-2.38,6.19-3.61,9.28c-2.45,6.14-4.85,12.29-7.51,18.37q-1.12,2.56-2.32,5.1c-.83,1.73-1.48,3.51-2.47,5.19-.05.1-.22,0-.19,0A46.66,46.66,0,0,1,403.57,284.68Z" style="fill:#263238"></path><path d="M393.24,197.36c0-.17.18-.06.17.07a55.89,55.89,0,0,1-2.81,13.77l-4.79,13.27L376.21,251c-7.12,19.92-14.54,39.75-21.14,59.85a25.81,25.81,0,0,0-1.24,6.82c-2.27,25.52-5.59,72.32-7.75,98.41,0,.1-.24.21-.25,0,0-.41,1.85-28.13,1.85-28.13,1.16-16.75,2.68-39.84,4-56.3.38-4.69.74-9.38,1.17-14.07a26.56,26.56,0,0,1,1.26-7c9.34-28.22,20.85-58.28,31.23-86.27l5-13.19a53.71,53.71,0,0,0,2.87-13.75Z" style="fill:#263238"></path><path d="M398.66,141.26c3,.22,9.29-5.12,11.85-9.71.17-.31-.29-3.65-.66-7.72-.22-2.48-.4-5.24-.38-7.77l-15.9,3.75a40.72,40.72,0,0,1,1.47,9.73,5.7,5.7,0,0,1-.12,1,.79.79,0,0,0,0,.17C394.56,132.72,394,140.9,398.66,141.26Z" style="fill:#f7a9a0"></path><path d="M394.9,130.75a9.31,9.31,0,0,0,1.63.09c8.81-.13,11.31-10.79,11.93-14.54l-14.89,3.52a40.6,40.6,0,0,1,1.47,9.72,5.7,5.7,0,0,1-.12,1S394.9,130.69,394.9,130.75Z" style="fill:#263238"></path><path d="M389.53,89.71a8.43,8.43,0,0,0-6.41,7.05c-.78,5.9,1.44,11.15,2,11.42S389.53,89.71,389.53,89.71Z" style="fill:#263238"></path><path d="M409.89,94.61c2.35,5.4,1.25,21.89-2.31,26-5.16,5.88-14.55,7.47-19.78,1-5.07-6.23-3.26-27.7.8-31.48C394.59,84.56,406.42,86.64,409.89,94.61Z" style="fill:#f7a9a0"></path><path d="M410.8,109.7c-.52,4.71-1.62,9-3.22,10.85-5.16,5.89-14.54,7.48-19.78,1.06-3.55-4.36-3.73-16.19-2.12-24.19v0c.69-3.41,1.7-6.14,2.92-7.27,6-5.57,17.82-3.49,21.29,4.48C411.19,97.59,411.44,103.93,410.8,109.7Z" style="fill:#f7a9a0"></path><path d="M397.24,105.8s.08.06.07.1c-.14,1.11-.11,2.4.86,2.86,0,0,0,.07,0,.06C396.94,108.53,396.93,106.82,397.24,105.8Z" style="fill:#263238"></path><path d="M398.33,104.73c1.8,0,1.6,3.62-.06,3.59S396.83,104.7,398.33,104.73Z" style="fill:#263238"></path><path d="M390.77,105.17s-.09,0-.09.1c0,1.11-.24,2.38-1.26,2.7,0,0,0,.06,0,.06C390.66,107.92,390.93,106.23,390.77,105.17Z" style="fill:#263238"></path><path d="M389.84,104c-1.78-.24-2.11,3.34-.46,3.56S391.34,104.15,389.84,104Z" style="fill:#263238"></path><path d="M399.8,103.26c-.48-.15-.9-.37-1.37-.56a2.45,2.45,0,0,1-1.28-.85.75.75,0,0,1,.18-.91,1.87,1.87,0,0,1,1.9-.09,2.73,2.73,0,0,1,1.53,1.28A.81.81,0,0,1,399.8,103.26Z" style="fill:#263238"></path><path d="M388.64,102.3a13.77,13.77,0,0,0,1.45-.29,2.43,2.43,0,0,0,1.42-.58.75.75,0,0,0,0-.93,1.86,1.86,0,0,0-1.85-.45,2.74,2.74,0,0,0-1.75,1A.81.81,0,0,0,388.64,102.3Z" style="fill:#263238"></path><path d="M397.52,116c-.28.25-.57.59-1,.6a2.87,2.87,0,0,1-1.18-.34s-.08,0-.06.05a1.48,1.48,0,0,0,1.38.68,1.19,1.19,0,0,0,.93-.93C397.64,116,397.56,116,397.52,116Z" style="fill:#263238"></path><path d="M396.53,112.59a3.82,3.82,0,0,1-2.62,1.55,4.77,4.77,0,0,1-1.36,0,1.09,1.09,0,0,1-.26,0l-.24,0a.28.28,0,0,1-.21-.26h0a.41.41,0,0,1,0-.11h0v-.1c0-.86.18-2.15.18-2.15-.32.14-2,.77-1.91.32a57.48,57.48,0,0,1,2.1-11.37.1.1,0,0,1,.2,0c-.27,3.57-1.16,7.06-1.48,10.63a6.61,6.61,0,0,1,1.81-.44c.12,0-.34,2.5-.32,2.89v0a5.27,5.27,0,0,0,4-1C396.52,112.43,396.6,112.5,396.53,112.59Z" style="fill:#263238"></path><path d="M393.07,113.72a4.58,4.58,0,0,0,1.73,1.49,2,2,0,0,0,1.22.14c.9-.18,1-1,.84-1.7a4.82,4.82,0,0,0-.34-1.09A5.85,5.85,0,0,1,393.07,113.72Z" style="fill:#263238"></path><path d="M394.8,115.21a2,2,0,0,0,1.22.14c.9-.18,1-1,.84-1.7A2.07,2.07,0,0,0,394.8,115.21Z" style="fill:#ff9abb"></path><path d="M410.25,111.64c-2.07.27-3.34-6-3.59-8.44-.23-2.1.2-8.59.17-9s-9.55,4.19-14.28,1.9-7.29-7.32-7-9.41,7.35-6.34,12.74-5.7,11.47,8.64,11.47,8.64A25.51,25.51,0,0,1,407.91,86c.13-.22,3.34,1.74,3.56,4.3,0,0-.16-3.2.11-3.21s2.51,3.08,1.57,5c0,0,2.64,3.21,2.43,6.21S412.69,111.32,410.25,111.64Z" style="fill:#263238"></path><path d="M389.2,94.42a16.55,16.55,0,0,0,4.41,2.48,11.41,11.41,0,0,0,5.51,0,17.19,17.19,0,0,0,5.17-2c1.41-.82,2.72-1.87,4.2-2.55.37-.18.68.37.42.64a18.06,18.06,0,0,1-10.14,5.11,10.39,10.39,0,0,1-9.6-3.7S389.17,94.41,389.2,94.42Z" style="fill:#263238"></path><path d="M397.8,112.77a5.16,5.16,0,0,1-3.8-6.22h0a5.15,5.15,0,1,1,5.07,6.37A5.06,5.06,0,0,1,397.8,112.77Zm-3.13-6.06a4.47,4.47,0,1,0,5.39-3.3,5.24,5.24,0,0,0-1.11-.12A4.47,4.47,0,0,0,394.67,106.71Z" style="fill:#455a64"></path><path d="M387,111.61c-2.1-.22-3.58-2.7-3.28-5.53a6.12,6.12,0,0,1,1.46-3.47,3.21,3.21,0,0,1,5.47.57,6.15,6.15,0,0,1,.71,3.7c-.28,2.67-2.05,4.72-4,4.74Zm-1.31-8.54a5.49,5.49,0,0,0-1.29,3.08c-.25,2.45.95,4.59,2.67,4.77s3.34-1.66,3.6-4.11a5.43,5.43,0,0,0-.62-3.29,2.76,2.76,0,0,0-2-1.49h-.26A2.85,2.85,0,0,0,385.66,103.07Z" style="fill:#455a64"></path><path d="M394.11,107.16l.49-.48c-.71-.73-2.42-1.8-3.81-.59l.45.52C392.49,105.52,394,107.09,394.11,107.16Z" style="fill:#455a64"></path><path d="M414.82,110.87l.65-.25c-.12-.3-1.19-2.94-2.7-3.35s-8.69-.47-9.08-.48v.69a74.46,74.46,0,0,1,8.91.46C413.58,108.21,414.54,110.15,414.82,110.87Z" style="fill:#455a64"></path><path d="M407.06,108.09s3.16-5.59,5.66-4.5.47,8.92-2.22,10.23a2.86,2.86,0,0,1-3.95-1.17Z" style="fill:#f7a9a0"></path><path d="M412.08,105.82c.05,0,.06.05,0,.07-1.88,1-2.73,2.89-3.28,4.84a1.57,1.57,0,0,1,2.3-.65c.06,0,0,.12,0,.11a1.74,1.74,0,0,0-1.86.79,8.18,8.18,0,0,0-.77,1.64c-.08.18-.4.12-.35-.09v0C407.82,110,409.43,106.32,412.08,105.82Z" style="fill:#263238"></path><path d="M392.85,138.87l.11-8.66,17.36-7.15,1.87,6.13a28.32,28.32,0,0,1-6.43,9.51C401.45,142.65,396.32,142.82,392.85,138.87Z" style="fill:#22A195"></path><path d="M457,257.53c0,.07-19.28,6.92-19.28,6.92l-3.49-21.32-7.64,21.32s-64.18-9.74-64.61-10.11c-.23-.2,18.47-44.08,19-49.53,1.69-18.7,5.52-57.77,12.73-70.6,2.33-4.14,13.11-8.3,18.1-5.55,13.3,7.35,27.67,48.89,34.59,69.34C451,211.75,457,257.44,457,257.53Z" style="fill:#ebebeb"></path><path d="M419.08,147.75s9.42,25.9,12.08,42.23" style="fill:#dbdbdb"></path><path d="M390.28,187.12c.64-2.74,5.17-29.67,7.26-40.59s6.69-12,11,1.63,12.15,51.66,6.05,63.17C406.52,226.5,390.28,187.12,390.28,187.12Z" style="fill:#ebebeb"></path><path d="M389.55,191.65c.64-3.26,1.24-6.53,1.82-9.81s1.13-6.55,1.7-9.83l1.59-9.85.75-4.93c.24-1.65.49-3.29.71-4.94-.33,1.63-.63,3.27-.94,4.9l-.89,4.91-1.7,9.83c-.53,3.28-1.08,6.56-1.58,9.85S390,188.36,389.55,191.65Z" style="fill:#263238"></path><path d="M394.71,159.88a17.76,17.76,0,0,0,0-2.63c0-.43-.06-.87-.1-1.3s-.11-.87-.16-1.31a11.62,11.62,0,0,0-.11,2.63A15.29,15.29,0,0,0,394.71,159.88Z" style="fill:#263238"></path><path d="M412.81,158.22a5.32,5.32,0,0,1,0,4.25,11.9,11.9,0,0,0,0-4.25Z" style="fill:#263238"></path><rect x="331.15" y="158.82" width="59.43" height="89.15" transform="translate(-16.76 33.12) rotate(-5.14)" style="fill:#22A195"></rect><rect x="331.15" y="158.82" width="59.43" height="89.15" transform="translate(-16.76 33.12) rotate(-5.14)" style="opacity:0.1"></rect><rect x="319.89" y="137.74" width="72.07" height="21.3" transform="translate(-11.86 32.46) rotate(-5.14)" style="fill:#455a64"></rect><rect x="341.16" y="184.47" width="39.57" height="39.57" transform="translate(-16.84 33.13) rotate(-5.14)" style="fill:#fff"></rect><polygon points="327.28 161.66 327.9 168.57 362.36 178.18 368.58 247.46 384.56 246.02 376.58 157.23 327.28 161.66" style="opacity:0.1"></polygon><path d="M412.61,211.45c-5.45,5.73-15.4,6.05-46.73,7.42-4.34.19-14.77-30.68-10.15-31.12,5.82-.55,30.5-1.73,32.17-1.58C402,187.38,416.3,207.56,412.61,211.45Z" style="fill:#f7a9a0"></path><path d="M324.4,188.43c-1.2,3.21,1.6,5.38,1.6,5.38a7.29,7.29,0,0,0-2.66,4.19c-.52,3,3.9,5.07,3.9,5.07a9,9,0,0,0-2.11,4.86c-.21,2.88,3.95,5.64,3.95,5.64a7.9,7.9,0,0,0,.84,5.45c2.65,4.31,10.38,4.38,15.3,4.47s18.95-4.25,21.71-4.81l.86-31.55s-21.93-6.69-27.73-6C335.18,181.75,325.74,184.83,324.4,188.43Z" style="fill:#f7a9a0"></path><path d="M326.23,193.31c5-1.88,10.36-2.17,15.66-2.77a.1.1,0,0,1,0,.19c-5.28.53-10.38,2.09-15.62,2.83A.13.13,0,0,1,326.23,193.31Z" style="fill:#263238"></path><path d="M327.35,202.66a13.45,13.45,0,0,1,3.63-.48c1.3-.08,2.6-.14,3.9-.17q3.9-.12,7.81,0c.11,0,.14.18,0,.18-2.59.08-5.18.2-7.77.38-1.29.1-2.58.2-3.88.32a17.27,17.27,0,0,1-3.66.15A.18.18,0,0,1,327.35,202.66Z" style="fill:#263238"></path><path d="M329.18,213.57a9.87,9.87,0,0,1,3.3-.26c1.19,0,2.37,0,3.56-.05,2.37,0,4.74-.09,7.11-.21a.09.09,0,0,1,0,.18c-2.41.14-4.81.32-7.22.44q-1.77.09-3.54.15a9.21,9.21,0,0,1-3.23-.13C329.13,213.67,329.14,213.59,329.18,213.57Z" style="fill:#263238"></path><path d="M363.9,185.43l10.67,38.88s34.79-3.81,39.48-12.21c2.59-4.64-11.85-25.89-27.5-26Z" style="fill:#ebebeb"></path><path d="M404.1,193.64A26.82,26.82,0,0,0,386.53,186c-.08,0-.1.12,0,.13,6.72.82,15.22,5.68,17.52,7.58C404.09,193.79,404.16,193.69,404.1,193.64Z" style="fill:#263238"></path><path d="M383.85,220.69c-1-4.34-2.15-8.62-3.35-12.91s-2.39-8.57-3.69-12.82c-.74-2.41-1.46-4.81-2.29-7.19,0-.06-.13,0-.11,0,.95,4.34,2.12,8.63,3.29,12.91s2.39,8.58,3.64,12.85q1.07,3.62,2.29,7.19A.11.11,0,0,0,383.85,220.69Z" style="fill:#263238"></path><path d="M373.07,218.87l1.56,5.43-.07-.05a162.65,162.65,0,0,0,23.88-4.61c4.79-1.46,9.71-3,13.64-6.15,6.72-6.49,4.56-23.23,3.71-31.93-.94-8.07-2.43-16.06-4-24a217.94,217.94,0,0,1,4.81,23.93c1,9.06,3.32,25.93-3.93,32.72-4.05,3.23-9.13,4.81-14,6.17a143.52,143.52,0,0,1-24.07,4h-.05l0-.06-1.43-5.46Z" style="fill:#263238"></path></g><g id="freepik--character-1--inject-103"><path d="M181.73,456.42c-2.4.8-71.09.6-73.7-1.06-1-.62-1.55-10.64-1.88-22.74q-.11-3.93-.16-8.06c-.06-3.25-.1-6.54-.12-9.73-.08-14.35.12-27,.12-27H150.7l0,27v9.73l-.23,8.06s26.26,11.84,28.93,14S184.13,455.63,181.73,456.42Z" style="fill:#d3766a"></path><path d="M181.73,456.42c-2.4.8-71.09.6-73.7-1.06-.93-.58-1.48-9.3-1.8-20.27,5.5,2.55,53,12.29,64.2,12.42,10.74.11-6.36-8.55-9.09-9.9,7.56,3.51,16.53,7.78,18,9C182,448.72,184.13,455.63,181.73,456.42Z" style="fill:#263238"></path><path d="M81.84,191.54s23.44,108.93,25.09,117.62c.38,2-4.53,116.15-4.53,116.15h51.27s0-100.84-2.07-118.2S123,191.54,123,191.54Z" style="fill:#263238"></path><path d="M81.84,191.55s11.4,48.5,18.87,86.1L123,191.55Z" style="fill:#37474f"></path><path d="M145.15,412.71c-.8-29.1-1.16-75.12-2.21-104.08-4.73-24.24-10.44-50.26-15.23-74.43,5.54,24,11.47,50,16.21,74.3,1.13,34.67,1,69.52,1.23,104.21Z" style="fill:#455a64"></path><path d="M122.71,456.91c-2.41.77-71.09-.09-73.69-1.77-1-.63-1.44-10.65-1.65-22.76,0-2.62,1.7-44.53,1.7-44.53l43.28.19-.7,44.77s26.15,12.09,28.79,14.25S125.12,456.14,122.71,456.91Z" style="fill:#d3766a"></path><path d="M122.71,456.91c-2.41.78-71.09-.09-73.69-1.77-.88-.57-1.33-8.54-1.57-18.79,9.95,3,52.4,10.67,62.87,10.57,9.5-.1-2.9-6.6-7.81-9,7.52,3.58,16.44,7.94,17.93,9.15C123.09,449.21,125.12,456.14,122.71,456.91Z" style="fill:#263238"></path><path d="M95.24,426.23H43s9.89-77.13,10.67-90.09c.4-6.62,4.62-74.41,8.45-106.21a53.92,53.92,0,0,1-1.46-15c.23-7.85,7.79-23.48,7.79-23.48H123s-.86,18.77-7.12,34.46a96.17,96.17,0,0,0-14.2,6.33s-2.75,94.06-3.62,110.9C96.94,364.61,95.24,426.23,95.24,426.23Z" style="fill:#263238"></path><path d="M87.86,420.22c1.19-28.24,3.35-69.59,4.93-98,.65-27.15,1.48-59.38,2.45-86.57-.28,27.24-.89,59.44-1.47,86.62-1.58,28.49-4,69.72-5.91,98Z" style="fill:#455a64"></path><path d="M130.67,135.07c-.37,3.82,1.49,5.31,1.41,7.36,0,0-9.11,3.26-23.87,1.83s-23.07-6.4-23.07-6.4c.32-2,2.43-3.13,2.81-7,.43-4.41-2.49-5-1.14-11.64,1-4.93,4.8-5.18,6.34-14.9,1.6-10.05,5.83-13.75,9-15.76A16.76,16.76,0,0,1,113.88,86s5.38-.54,10.72,4.48c2.75,2.58,6.45,7.42,6.08,17.59-.36,9.84,3.32,10.82,3.35,15.84C134.08,130.62,131.1,130.66,130.67,135.07Z" style="fill:#263238"></path><path d="M92.42,109.81c1.54-2.68,1.82-6,1.87-9.08a.11.11,0,1,0-.21,0c-.31,2.91-.48,5.94-1.91,8.53-1.23,2.25-3.27,3.74-4.91,5.6A10.6,10.6,0,0,0,84.53,121a10.31,10.31,0,0,0,.31,3.55,23.05,23.05,0,0,0,1.47,3.33c1.49,3.4-1,6.65-3,9,0,0,0,.06,0,0,1.65-1.78,3.43-3.76,3.82-6.36a6,6,0,0,0-.64-3.6,11.65,11.65,0,0,1-1.34-3.86,9.9,9.9,0,0,1,2.36-7.69C89.11,113.54,91.14,112,92.42,109.81Z" style="fill:#263238"></path><path d="M135.53,123.71c-.25-2.88-1.53-5.16-2.83-7.57a17.37,17.37,0,0,1-1.57-3.71,22.71,22.71,0,0,1-.59-4.58c-.09-1.69-.14-3.38-.39-5a31.22,31.22,0,0,0-1.22-4.89c0-.07-.12,0-.1,0a33.8,33.8,0,0,1,1.31,9.36,18.82,18.82,0,0,0,1.65,8.09c1.2,2.43,2.75,4.64,3.17,7.46.45,3,.32,6.65-1.43,9.18-1.42,2.07-4,4.39-3,7.29,0,.1.17,0,.15-.05-.74-3.27,2.23-5.27,3.64-7.69S135.74,126.3,135.53,123.71Z" style="fill:#263238"></path><path d="M108.17,141c1.63,23.46,5.92,47.06,9.48,51,5.53,6.05,37.81,16.22,48.37,17.45,3.46.4,8-22.86,5.39-25.5S134,172.88,132.09,171.57c-1-.69-8.39-19.15-14.19-31.57C112.5,128.46,107.68,133.89,108.17,141Z" style="fill:#d3766a"></path><path d="M154.11,208l6.17-29.34s-24.58-7.28-27.53-8.42c-1.25-.49-10.5-23.29-15-33.11-3-6.45-9.81-8.93-10.39,4.79-.34,8,3.62,46.15,9.53,51.76C121.55,198.13,154.11,208,154.11,208Z" style="fill:#ebebeb"></path><path d="M149,204.9c.11-2.17,2-10.91,2.54-13.08s2.82-10.81,3.35-13c0-.12.21-.12.18,0-.48,2.22-2.12,11.06-2.61,13.23s-2.51,10.87-3.35,12.91A.06.06,0,0,1,149,204.9Z" style="fill:#263238"></path><path d="M107.49,139.65c0,.34-.07.69-.09,1.06s-.06.79-.08,1.2c0,1.38,0,3.65.2,6.49,0,.52.06,1,.11,1.6,0,.34,0,.69.08,1,.06.73.12,1.49.19,2.27,0,.13,0,.27,0,.41.07.85.15,1.73.25,2.63.07.64.13,1.3.21,2s.14,1.33.23,2l.12,1c.45,3.77,1,7.71,1.66,11.51.17,1,.35,2.05.55,3.06.12.67.25,1.34.39,2s.26,1.3.4,1.93c1.43,6.62,3.17,12,5.1,13.81,3.18,3,19.13,8.52,29.1,11.75L113.5,132.3a3.93,3.93,0,0,0-.43-.18,2.94,2.94,0,0,0-2.64.28,4,4,0,0,0-1,.92,8.09,8.09,0,0,0-1.07,2.07A18.71,18.71,0,0,0,107.49,139.65Z" style="fill:#020100;opacity:0.1"></path><path d="M125.35,176.26l-1.2,17.64L70.1,189.2s8-39.45,23.52-55.73c8-8.46,16.42-6.86,21.78-.76,1.36,1.54,13.26,22.45,14.57,31.23A13.86,13.86,0,0,1,125.35,176.26Z" style="fill:#22A195"></path><path d="M117.72,173.58a48.33,48.33,0,0,0-7,1c-1.14.27-2.26.59-3.38.93-.56.18-1.12.33-1.68.48a7.37,7.37,0,0,1-1.8.3,0,0,0,1,0,0,.09,12.49,12.49,0,0,0,1.73,0,13.22,13.22,0,0,0,1.65-.28c1.16-.26,2.3-.58,3.46-.85,2.33-.56,4.66-1.11,7-1.49C117.85,173.76,117.83,173.57,117.72,173.58Z" style="fill:#263238"></path><path d="M123.48,175.77a51.38,51.38,0,0,0-5.81-.39c-1,0-1.94,0-2.91.12-.46,0-.93.08-1.39.13s-1,.18-1.51.23a0,0,0,1,0,0,.08c.48,0,1,0,1.45,0l1.45,0h2.9c1.94,0,3.88,0,5.82,0C123.58,175.93,123.58,175.78,123.48,175.77Z" style="fill:#263238"></path><polygon points="125.66 199.07 65.9 193.91 69.05 187.17 124.29 191.94 125.66 199.07" style="fill:#22A195"></polygon><polygon points="125.66 199.07 65.9 193.91 69.05 187.17 124.29 191.94 125.66 199.07" style="opacity:0.30000000000000004"></polygon><path d="M116.79,199.45l-15.27-1.31.8-9.25,15.27,1.32Zm-13.1-3.14,11.28,1,.45-5.26-11.28-1Z" style="fill:#dbdbdb"></path><path d="M113.53,130.73s11.75,22.58,11.14,33.6c-.22,3.92-1.12,97.68-1.12,97.68l19.13-7.94c.1-.29-13.37-46.93-14.13-52-2.09-14-3-25.21-2.91-25.39.17-.43,6.86-5.84,4.82-13.54-2.75-10.38-9.16-21.61-13.13-28.06C114.93,131.17,113.53,130.73,113.53,130.73Z" style="fill:#ebebeb"></path><path d="M102.16,127.8s-2.21,34.43-2,37.62-9.26,99-9.26,99L49,253.46S66.91,175,86.66,141.28C94.24,128.36,102.16,127.8,102.16,127.8Z" style="fill:#ebebeb"></path><path d="M103,129.83c.08,1.13,4.15,9,9.17,9.62,1.64.18,3-8.71,3-8.71l.25-.63,3.53-8.86-9.68-8.66-1.41-1.17s-.81,2.49-1.78,5.6c0,.14-.09.29-.14.44s-.12.34-.17.5c-.15.47-.3.94-.44,1.41s-.22.71-.32,1.1l-.32,1.13A60.58,60.58,0,0,0,103,129.83Z" style="fill:#d3766a"></path><path d="M106.13,117a19.16,19.16,0,0,0,9.34,13.09l3.53-8.86-9.68-8.66-1.41-1.17S107.1,113.91,106.13,117Z" style="fill:#263238"></path><path d="M132.71,106.71c1.53,16.67-8.28,19.47-11.87,19.8-3.26.29-14.41.89-17.66-15.53s4-22.4,11.44-23.47S131.17,90,132.71,106.71Z" style="fill:#d3766a"></path><path d="M129.86,104.51a10.8,10.8,0,0,1-1.13-.24,1.86,1.86,0,0,1-1.11-.47.6.6,0,0,1,0-.73,1.5,1.5,0,0,1,1.46-.34,2.18,2.18,0,0,1,1.36.77A.64.64,0,0,1,129.86,104.51Z" style="fill:#263238"></path><path d="M118.86,106a11,11,0,0,0,1.08-.42,1.85,1.85,0,0,0,1-.63.59.59,0,0,0-.12-.72,1.47,1.47,0,0,0-1.49-.11,2.18,2.18,0,0,0-1.23,1A.64.64,0,0,0,118.86,106Z" style="fill:#263238"></path><path d="M127.6,108.11s.09.06.09.1c0,1.15.14,2.46,1.18,2.83a0,0,0,0,1,0,.06C127.6,110.94,127.39,109.19,127.6,108.11Z" style="fill:#263238"></path><path d="M128.61,106.91c1.83-.16,2,3.52.32,3.67S127.07,107,128.61,106.91Z" style="fill:#263238"></path><path d="M129.39,107.11c.3.18.6.53,1,.53s.68-.41.92-.8c0,0,.06,0,.06,0,.06.7-.14,1.44-.81,1.61s-1.09-.42-1.3-1.12C129.18,107.24,129.27,107,129.39,107.11Z" style="fill:#263238"></path><path d="M121.19,108.63s-.09.06-.09.11c.12,1.14.05,2.46-.95,2.91,0,0,0,.07,0,.06C121.41,111.45,121.47,109.69,121.19,108.63Z" style="fill:#263238"></path><path d="M120.09,107.51c-1.84,0-1.74,3.67,0,3.69S121.63,107.53,120.09,107.51Z" style="fill:#263238"></path><path d="M119.33,107.78c-.29.2-.57.56-.91.59s-.72-.35-1-.72c0,0-.06,0-.06,0,0,.7.25,1.43.93,1.55s1.06-.51,1.21-1.22C119.55,107.89,119.44,107.69,119.33,107.78Z" style="fill:#263238"></path><path d="M120.93,117.78c.25.28.5.67.91.73a2.92,2.92,0,0,0,1.24-.21s.08,0,0,.06a1.55,1.55,0,0,1-1.49.53,1.24,1.24,0,0,1-.83-1.07C120.8,117.76,120.89,117.74,120.93,117.78Z" style="fill:#263238"></path><path d="M125.73,113.68s.22,1.71.22,2.52c0,.07-.2.1-.47.12,0,0,0,0,0,0a3.84,3.84,0,0,1-3.71-1.45.09.09,0,0,1,.12-.12,5.77,5.77,0,0,0,3.49,1c.06-.22-.48-2.91-.36-2.92a7.08,7.08,0,0,1,1.83.43c-.37-3.57-1.3-7.06-1.61-10.62,0-.12.18-.16.21,0A57.78,57.78,0,0,1,127.64,114C127.7,114.44,126.05,113.82,125.73,113.68Z" style="fill:#263238"></path><path d="M101.69,110c1.93.24,6.46.78,9.44-1.44,1.64-1.22,3.14-3.37,4.18-7.3,1.82-6.87,6.76-11.18,14-6.73,0,0,1.89-6.36-2.33-9.13s-8.85,1.3-8.85,1.3S108.53,85.19,103,92.2,101.69,110,101.69,110Z" style="fill:#263238"></path><path d="M107.31,111.08s-3.68-5.21-6-3.89.42,8.87,3.21,9.89a2.82,2.82,0,0,0,3.78-1.54Z" style="fill:#d3766a"></path><path d="M102.12,109.33s-.05.06,0,.08c2,.78,3,2.58,3.72,4.45a1.56,1.56,0,0,0-2.34-.41s0,.11.05.1a1.75,1.75,0,0,1,1.92.6,8.3,8.3,0,0,1,.93,1.54c.09.18.4.08.34-.12l0,0C106.75,113,104.79,109.57,102.12,109.33Z" style="fill:#263238"></path><path d="M115.34,130.71l-3.85,7.08-8.13-10.48-3,2.7s7.28,16,7.41,15.33l3.82-6.05,3.89,5,1-11.23Z" style="fill:#22A195"></path><path d="M116.3,138.75c.09-1.86.24-3.73.25-5.59,0-.07-.1-.11-.12,0-.58,1.73-.91,8.84-1.12,10.53v0c-.17-.22-3.64-4.4-3.68-4.35-.79.94-3.58,5.34-3.79,5.75-1.14-2.54-5.6-11.81-7-14.25a.07.07,0,0,0-.12.05c1,2.66,6.85,15.12,7,15.1a72.8,72.8,0,0,0,4-6.4c.56.89,4,5.56,4.06,5.29A59,59,0,0,0,116.3,138.75Z" style="fill:#263238"></path><path d="M89.18,139.37c-10.27,16.36-22.47,44.55-19.93,50.13,6.36,14,22.54,29.18,30.18,34.32,4.46,3,21.45-19.75,17.62-22.61-6-4.52-21.7-19.74-23.58-21.78-1-1.09,3.55-21.27,5.31-34.71C100.7,130.1,94.19,131.4,89.18,139.37Z" style="fill:#d3766a"></path><path d="M127.79,215.5c-.88-1.63,0-2.1,3-.8s13.86,9,16.24,5-13.08-14.7-18.27-16.49-14.23-2.86-14.23-2.86C117.12,203.06,122.78,210.17,127.79,215.5Z" style="fill:#d3766a"></path><rect x="146.06" y="159.19" width="10.83" height="68.1" transform="translate(165.61 -51.89) rotate(41.39)" style="fill:#c7c7c7"></rect><polygon points="116.35 245.48 104.06 234.64 104.06 234.64 133.25 201.52 133.25 201.52 145.55 212.35 145.55 212.35 116.35 245.48" style="fill:#263238"></polygon><g style="opacity:0.2"><path d="M226.25,174.16a59.22,59.22,0,1,0-44.46-8.46A59.21,59.21,0,0,0,226.25,174.16Z" style="fill:#fff"></path></g><path d="M146.51,130.35a69.13,69.13,0,1,1,81.77,53.58A69.21,69.21,0,0,1,146.51,130.35ZM274.1,103.78a61.2,61.2,0,1,0-47.44,72.39A61.27,61.27,0,0,0,274.1,103.78Z" style="fill:#37474f"></path><path d="M152.26,129.15a62.86,62.86,0,1,0,.32-27.34A62.69,62.69,0,0,0,152.26,129.15Zm12.48-45.3a59.12,59.12,0,1,1-8.45,44.46A58.74,58.74,0,0,1,164.74,83.85Zm-12.48,45.3a62.86,62.86,0,1,0,.32-27.34A62.69,62.69,0,0,0,152.26,129.15Zm12.48-45.3a59.12,59.12,0,1,1-8.45,44.46A58.74,58.74,0,0,1,164.74,83.85ZM144.5,130.76a70.82,70.82,0,1,0,.37-30.76A70.66,70.66,0,0,0,144.5,130.76ZM148.89,101a67,67,0,1,1-.36,29A67.15,67.15,0,0,1,148.89,101Zm3.69.86a62.69,62.69,0,0,0-.32,27.34,62.86,62.86,0,1,0,.32-27.34Zm12.16-18a59.12,59.12,0,1,1-8.45,44.46A58.74,58.74,0,0,1,164.74,83.85Z" style="fill:#37474f"></path><path d="M256.46,140.84a45.48,45.48,0,0,0,6.25-17.73,49.09,49.09,0,0,0,.42-9.63,51.92,51.92,0,0,0-1.55-9.64,47.31,47.31,0,0,0-8.94-17.34,52.28,52.28,0,0,0-14.7-12.43A93,93,0,0,1,250.1,88.33a56.34,56.34,0,0,1,4.46,8,47.19,47.19,0,0,1,3.1,8.49,58.12,58.12,0,0,1,1.9,17.93A76.53,76.53,0,0,1,256.46,140.84Z" style="fill:#fff"></path><path d="M168.25,106.72a45.52,45.52,0,0,0-1.17,18.76,48.93,48.93,0,0,0,2.23,9.39,51.77,51.77,0,0,0,4.12,8.84A47.36,47.36,0,0,0,186.77,158a52.07,52.07,0,0,0,17.53,7.94,94,94,0,0,1-15.59-10.39,58,58,0,0,1-6.47-6.45,47.9,47.9,0,0,1-5.3-7.33A58.14,58.14,0,0,1,170.21,125,76.59,76.59,0,0,1,168.25,106.72Z" style="fill:#fff"></path><path d="M97,221.51c7.57,7.29,16.55,16.82,28.09,19.58a5.91,5.91,0,0,0,3.84-.28c5.15,1.32,7.32-.71,7.32-.71,5.17-.23,7.11-2.62,7.11-2.62s6.06,1.49,7.57-2c1.7-3.94-7.14-5.26-11.56-9-10.13-8.49-22.15-23.38-24.83-26.12Z" style="fill:#d3766a"></path><path d="M122.49,225.06a85.76,85.76,0,0,0,9.28,6.93,85.32,85.32,0,0,0,11.51,5.36.1.1,0,0,1-.07.19,44.9,44.9,0,0,1-20.84-12.34C122.24,225.06,122.33,224.94,122.49,225.06Z" style="fill:#263238"></path><path d="M116.48,230.43c3.08,2.21,8.51,6,19.79,9.55,0,0,0,.08,0,.07a40.28,40.28,0,0,1-19.88-9.48C116.19,230.42,116.27,230.28,116.48,230.43Z" style="fill:#263238"></path><path d="M113.3,233.37c5.38,3.56,9.22,5.12,15.59,7.4,0,0,0,.08,0,.07-7.51-1.83-10-3.35-15.72-7.3C113,233.4,113.09,233.23,113.3,233.37Z" style="fill:#263238"></path><path d="M93.29,224.73l22.23-27.1L94.84,179.12c2.06-11,6.17-32.88,6.45-40.67.34-9.14-6-10-11.44-2.41-12.48,17.28-25.56,49.23-25.06,54.54C65.52,198.18,93.29,224.73,93.29,224.73Z" style="fill:#ebebeb"></path><path d="M91.62,217.75c1.06-1.92,6.69-9,8.11-10.8s7.36-8.61,8.82-10.41c.08-.1.25,0,.17.09-1.42,1.81-6.83,9.14-8.24,10.91s-7.1,8.8-8.77,10.28A.06.06,0,0,1,91.62,217.75Z" style="fill:#263238"></path><path d="M80.8,152.38c-3.35,6.88-17.68,33.37-15.12,39.44,3.38,6.26,8.53,11.5,13.11,16.91,4.75,5.4,9.65,10.68,14.57,15.93h-.15l2.86-3.32-2.7,3.45-.07.08-.08-.07q-7.71-7.58-15-15.53c-4.76-5.44-9.91-10.66-13.42-17-3-6.73,12-32.93,16-39.85Z" style="fill:#263238"></path><path d="M99.3,152.91c-.79,8.26-2.56,17-3.84,25.17-.06.36-.11.69-.14,1a.49.49,0,0,0,0-.15v0c4.62,4.7,10.35,9.46,15.25,14l5,4.57,0,0,0,0-.62.71.55-.77v.07l-5.28-4.28c-5.16-4.41-11-9-15.7-13.8a.65.65,0,0,1-.16-.46c.07-1,.24-1.88.39-2.82,1.27-7.43,3.11-16,4.55-23.34Z" style="fill:#263238"></path><path d="M99.9,154.47a8.67,8.67,0,0,1-1.42,3.58c.49-1.17.84-2.45,1.42-3.58Z" style="fill:#263238"></path><path d="M147.16,199.27c.13-3.61,4.3-1.39,4.3-1.39s-5.24-4.64-3.67-8.3,6.47-.67,6.83-.47c-.28-.25-5-4.64-3-8.16s6.51.06,6.8.3c-.19-.31-2.58-4.52-.48-6.86,3.6-4,11.45,7.45,15.73,8.31l6.12-5.34a10.87,10.87,0,0,0-.59,6.11c.49,3,.83,5,.25,6.77a3.94,3.94,0,0,1-3.74,2.87s2.39,3,.93,5.81c-.75,1.44-3.73,1.53-3.73,1.53s1.82,2.47.37,4.9c-1.15,1.94-4,1.72-4,1.72s.64,3.19-1.18,4.79C164.45,215.09,146.89,207,147.16,199.27Z" style="fill:#d3766a"></path><path d="M175.24,181.69l4.42-4.21.6-.34c6.89-3.68,16.1.24,12.12,4.19-3,3-10.09,1.45-12.73,5h0Z" style="fill:#d3766a"></path><path d="M168.85,207.11a.05.05,0,0,1,0,.1,33.63,33.63,0,0,1-17.6-9.42c-.15-.16.05-.47.24-.33A69,69,0,0,0,168.85,207.11Z" style="fill:#263238"></path><path d="M173,200.52c.07,0,0,.15-.06.13-6.61-1.33-14-5.31-18.56-11.47-.15-.21-.08-.56.12-.33C157.79,192.72,167.08,198.4,173,200.52Z" style="fill:#263238"></path><path d="M158.23,180.72c4.57,5.74,10.52,9.43,17.18,12.35.09,0,0,.16-.06.15-3.64-.54-7.69-2.85-10.69-4.9a19.46,19.46,0,0,1-6.63-7.44C158,180.75,158.13,180.59,158.23,180.72Z" style="fill:#263238"></path></g><g id="freepik--speech-bubble--inject-103"><path d="M307.79,68.27a23.89,23.89,0,0,0,39.93,15.12l12,1.76-6-10.34a23.9,23.9,0,1,0-45.91-6.54Z" style="fill:#fff"></path><path d="M314.94,48.53A24.15,24.15,0,0,1,354.13,75l0-.4,5.95,10.35.43.77-.86-.14-11.95-1.83.28-.09a24.06,24.06,0,0,1-11.82,5.84,21.61,21.61,0,0,1-3.31.35,24.54,24.54,0,0,1-3.32-.07,23.82,23.82,0,0,1-6.44-1.53A23.58,23.58,0,0,1,317.3,85a22.06,22.06,0,0,1-4.69-4.63,24.06,24.06,0,0,1,2.33-31.86Zm-2.26,31.8a25.56,25.56,0,0,0,2.17,2.47,26.68,26.68,0,0,0,2.53,2.11A22.3,22.3,0,0,0,323.14,88a23.13,23.13,0,0,0,9.66,1.41A20.79,20.79,0,0,0,336,89a23.54,23.54,0,0,0,11.45-5.89l.12-.11.16,0,12,1.68-.43.63-6-10.32-.11-.19.09-.22A24,24,0,0,0,355,64.22a23.6,23.6,0,0,0-3-10.12,24.57,24.57,0,0,0-7.15-7.8,23.62,23.62,0,0,0-9.87-3.9,23.64,23.64,0,0,0-22.21,37.93Z" style="fill:#263238"></path><path d="M320.55,70.11a33.6,33.6,0,0,0,10.76,9.34,33.49,33.49,0,0,0,10.76-9.34c3.79-5,3.6-12.86-1.82-14.56-6-1.87-8.94,7.15-8.94,7.15s-3-9.08-8.94-7.15C317,57.31,316.77,65.1,320.55,70.11Z" style="fill:#22A195"></path><polygon points="335.54 75.49 337.18 68.69 338.24 71.08 344.84 71.08 344.84 70.32 338.74 70.32 336.96 66.31 335.68 71.61 333.88 60.62 332.29 69.31 331.04 65.69 329.06 71.63 328.62 70.31 317.78 70.31 317.78 71.08 328.06 71.08 329.06 74.05 331.05 68.07 332.52 72.33 333.84 65.12 335.54 75.49" style="fill:#fff"></polygon></g></svg>
